<?xml version="1.0" encoding="UTF-8" standalone="no"?>
<svg
   xmlns:vectornator="http://vectornator.io"
   xmlns:dc="http://purl.org/dc/elements/1.1/"
   xmlns:cc="http://creativecommons.org/ns#"
   xmlns:rdf="http://www.w3.org/1999/02/22-rdf-syntax-ns#"
   xmlns:svg="http://www.w3.org/2000/svg"
   xmlns="http://www.w3.org/2000/svg"
   xmlns:sodipodi="http://sodipodi.sourceforge.net/DTD/sodipodi-0.dtd"
   xmlns:inkscape="http://www.inkscape.org/namespaces/inkscape"
   height="977.42029"
   stroke-miterlimit="10"
   style="clip-rule:evenodd;fill-rule:nonzero;stroke-linecap:round;stroke-linejoin:round"
   version="1.1"
   viewBox="0 0 2545.0712 977.42029"
   width="2545.0713"
   xml:space="preserve"
   id="svg249"
   sodipodi:docname="logo.svg"
   inkscape:version="1.0.2 (e86c870879, 2021-01-15, custom)"><metadata
   id="metadata253"><rdf:RDF><cc:Work
       rdf:about=""><dc:format>image/svg+xml</dc:format><dc:type
         rdf:resource="http://purl.org/dc/dcmitype/StillImage" /><dc:title></dc:title></cc:Work></rdf:RDF></metadata><sodipodi:namedview
   pagecolor="#ffffff"
   bordercolor="#666666"
   borderopacity="1"
   objecttolerance="10"
   gridtolerance="10"
   guidetolerance="10"
   inkscape:pageopacity="0"
   inkscape:pageshadow="2"
   inkscape:window-width="3440"
   inkscape:window-height="1417"
   id="namedview251"
   showgrid="false"
   inkscape:zoom="0.38655283"
   inkscape:cx="712.45931"
   inkscape:cy="497.60788"
   inkscape:window-x="-8"
   inkscape:window-y="-8"
   inkscape:window-maximized="1"
   inkscape:current-layer="Calque-1"
   inkscape:pagecheckerboard="true"
   fit-margin-top="0"
   fit-margin-left="0"
   fit-margin-right="0"
   fit-margin-bottom="0" />
<defs
   id="defs2" />
<g
   id="Calque-1"
   vectornator:layerName="Calque 1"
   transform="translate(-412.872,-694.51212)">




<g
   id="g377"><g
     opacity="1"
     vectornator:layerName="svga-group-humanwrap"
     id="g172">
<path
   d="m 1082.17,1164.81 c -3.49,135.67 -106.696,433.21 -246.9,433.21 -140.2,0 -257.457,-293.49 -260.827,-433.21 -4.856,-201.302 113.664,-364.592 253.864,-364.592 140.204,0.005 259.043,163.303 253.863,364.592 z"
   fill="#000000"
   fill-rule="nonzero"
   opacity="1"
   stroke="none"
   vectornator:layerName="path"
   id="path4" />
<g
   opacity="1"
   vectornator:layerName="svga-group-humanbody-single"
   id="g14">
<path
   d="m 1210.25,1548.95 c -25.37,-42.89 -56.9,-50.56 -82.88,-58.85 -26.7,-8.51 -81.7,-13.42 -111.69,-19.42 -28.969,-5.8 -97.771,-24.45 -98.556,-56.96 -0.811,-34.06 18.12,-169.29 18.12,-169.29 H 716.809 c 0,0 18.947,135.23 18.132,169.29 -0.777,32.51 -69.591,51.16 -98.563,56.96 -29.998,6 -84.983,10.91 -111.683,19.42 -25.996,8.29 -57.531,15.95 -82.902,58.85 -15.387,26.01 -25.37,68.13 -25.37,114.58 h 819.217 c -0.01,-46.45 -9.97,-88.57 -25.39,-114.58 z"
   fill="#000000"
   fill-rule="nonzero"
   opacity="1"
   stroke="none"
   vectornator:layerName="path"
   id="path6" />
<path
   d="m 917.124,1413.73 c 10.536,46.15 76.706,57.84 111.026,64.71 92.52,18.49 142.61,21.68 178.61,82.51 12.26,20.76 23.05,66.99 25.18,101.99 7.75,1.23 2.24,-73.61 -21.69,-113.99 -41.14,-69.56 -122.84,-63.91 -194.57,-78.27 -28.969,-5.8 -97.771,-24.44 -98.556,-56.95 z m -181.089,0 c -0.785,32.51 -69.587,51.15 -98.555,56.95 -71.736,14.36 -153.434,8.71 -194.572,78.27 -23.93,40.38 -29.437,115.22 -21.688,113.99 2.124,-35 12.918,-81.23 25.176,-101.99 35.995,-60.83 86.094,-64.02 178.61,-82.51 34.323,-6.87 100.493,-18.57 111.029,-64.71 z"
   fill="#000000"
   fill-rule="nonzero"
   opacity="1"
   stroke="none"
   vectornator:layerName="path"
   id="path8" />
<path
   d="m 620.534,1505.23 c 0,0 120.944,1.27 141.349,7.96 9.771,3.2 35.353,23.79 35.353,23.79 0,0 -27.685,-13.39 -36.561,-15.87 -20.62,-5.76 -140.141,-15.88 -140.141,-15.88 z m 205.18,44.28 c 8.669,-0.17 33.305,-16.04 33.305,-16.04 0,0 -23.538,8.7 -31.004,9.12 -6.296,0.36 -26.882,-5.23 -26.882,-5.23 0,0 17.474,12.29 24.581,12.15 z m 72.686,-30.58 c 28.504,-7.68 125.78,-13.64 125.78,-13.64 0,0 -100.464,-2.18 -128.837,7.29 -9.51,3.17 -31.933,21.79 -31.933,21.79 0,0 25.607,-12.92 34.99,-15.44 z"
   fill="#000000"
   fill-rule="nonzero"
   opacity="1"
   stroke="none"
   vectornator:layerName="path"
   id="path10" />
<path
   d="m 1210.25,1548.95 c -41.13,-69.55 -122.97,-63.94 -194.57,-78.27 -28.969,-5.8 -97.771,-24.44 -98.556,-56.95 -0.811,-34.07 18.12,-169.29 18.12,-169.29 H 716.809 c 0,0 18.947,135.22 18.132,169.29 -0.777,32.51 -69.591,51.15 -98.563,56.95 -29.998,6.01 -84.983,10.91 -111.683,19.43 -25.996,8.29 -57.531,15.95 -82.902,58.85 -15.387,26.01 -25.37,68.12 -25.37,114.57 h 819.217 c -0.01,-46.45 -9.97,-88.57 -25.39,-114.58 z"
   fill="#000000"
   fill-rule="nonzero"
   opacity="1"
   stroke="none"
   vectornator:layerName="path"
   id="path12" />
</g>
<path
   d="m 826.588,1427.08 c 31.624,0 61.504,-7.84 87.867,-20.94 1.157,-35.66 12.618,-122.2 16.68,-152 -20.198,-3.44 -42.861,-5.76 -66.39,-6.96 h -76.314 c -23.956,1.22 -47.016,3.61 -67.488,7.15 4.067,29.82 15.396,115.36 16.646,151.25 26.633,13.44 56.923,21.5 88.999,21.5 z"
   fill="#000000"
   fill-rule="nonzero"
   opacity="1"
   stroke="none"
   vectornator:layerName="path"
   id="path16" />
<g
   opacity="1"
   vectornator:layerName="svga-group-clothes-single"
   id="g26">
<path
   d="m 869.394,1671.51 c -75.435,0 -163.421,-0.29 -268.985,-0.9 l -93.344,-0.51 c -56.366,-0.3 -67.569,-0.37 -74.452,-0.37 l -19.311,0.03 c 0.136,-171.12 84.519,-182.99 173.851,-195.57 30.704,-4.32 62.451,-8.79 91.144,-19.98 35.999,50.56 92.58,57.39 143.203,57.39 2.816,0 5.662,-0.03 8.513,-0.08 53.493,-1.2 116.345,-20.15 136.466,-59.79 2.593,0.98 5.009,2.12 7.34,3.23 2.622,1.24 5.333,2.52 8.335,3.61 19.636,7.11 44.056,10.47 69.896,14.03 84.5,11.66 189.67,26.16 188.24,190.32 0.01,0.65 0.02,4.63 -0.05,5.88 -49.33,0 -82.79,0.47 -121.54,1.03 -52.55,0.75 -117.96,1.68 -249.255,1.68 -0.026,0 -0.038,0 -0.051,0 z"
   fill="#000000"
   fill-rule="nonzero"
   opacity="1"
   stroke="none"
   vectornator:layerName="path"
   id="path18" />
<path
   d="m 1239.86,1663.53 c -8.56,-23.16 -4.06,-65.2 -28.87,-102.58 -49.21,-74.14 -140.72,-67.35 -224.769,-91.38 -17.753,36.17 -51.687,57.17 -90.49,69.21 l -0.067,-0.2 c 38.072,-13.5 70.448,-34.06 88.69,-69.57 -2.115,-0.61 -4.227,-1.23 -6.33,-1.89 l 4.037,-7.75 c 102.139,31.41 184.569,8.71 232.409,89.58 15.42,26.01 25.39,68.13 25.39,114.58 z M 645.985,1474.96 c 5.35,-1.24 10.683,-2.56 15.996,-4 l -5.625,-7.46 c -98.572,25.45 -172.656,9.34 -217.675,85.45 -15.413,26.01 -25.383,68.13 -25.383,114.58 8.56,-23.16 4.054,-65.2 28.871,-102.58 44.639,-67.25 124.086,-67.93 201.198,-85.41 27.528,33.9 67.741,57.85 111.489,64.75 -54.875,-14.31 -89.003,-40.84 -108.871,-65.33 z"
   fill="#000000"
   fill-rule="nonzero"
   opacity="1"
   stroke="none"
   vectornator:layerName="path"
   id="path20" />
<path
   d="m 962.046,1460.04 c -21.097,32.52 -78.299,54.71 -143.181,54.71 -64.11,0 -116.996,-21.99 -141.463,-58.81 l -0.186,-0.27 5.215,7.83 c -5.781,2.46 -20.341,7.38 -20.341,7.38 l -6.106,-7.85 0.376,0.49 c 1.145,1.5 2.335,3.11 3.594,4.82 18.407,24.93 49.22,66.65 153.269,66.65 9.129,0 18.762,-0.33 28.63,-0.99 68.844,-4.93 113.478,-26.85 136.159,-66.88 -0.232,-0.1 -10.595,-4.36 -15.966,-7.08 z"
   fill="#000000"
   fill-rule="nonzero"
   opacity="1"
   stroke="none"
   vectornator:layerName="path"
   id="path22" />
<path
   d="m 966.264,1451.2 c -21.287,42.57 -88.805,58.84 -136.268,59.91 -61.8,0.96 -116.392,-7.78 -151.555,-57.42 -111.346,43.68 -265.569,-15.15 -265.569,216.5 39.187,0 -18.175,-0.27 187.532,0.84 487.196,2.8 486.296,-1.81 640.216,-1.81 0.11,-0.56 0.09,-5.73 0.09,-6.3 1.85,-213.69 -173.23,-173.92 -258.416,-204.75 -5.79,-2.1 -10.359,-4.86 -16.03,-6.97 z m -289.217,4.98 c 58.312,87.73 254.206,69.72 289.006,-2.37 4.729,1.99 9.881,3.97 15.371,5.91 -16.486,34.57 -51.835,67.57 -139.605,73.86 -135.187,9.01 -166.418,-45.8 -185.125,-70.31 0.574,-0.16 14.594,-4.94 20.353,-7.09 z m -263.584,213.28 c 10.557,-96.6 20.083,-165.61 138.042,-186.08 40.509,-7.48 61.268,-8.19 104.851,-19.98 33.246,45.57 66.462,78.2 188.757,73.05 90.24,-10.04 120.64,-40.62 137.075,-76.43 111.992,35.25 250.342,-0.73 257.082,208.52 -213.1,-2.77 -418.982,-8.32 -825.807,0.92 z"
   fill="#000000"
   fill-rule="nonzero"
   opacity="1"
   stroke="none"
   vectornator:layerName="path"
   id="path24" />
</g>
<g
   opacity="1"
   vectornator:layerName="svga-group-head"
   id="g170">
<g
   opacity="1"
   vectornator:layerName="svga-group-ears-left"
   id="g32">
<path
   d="m 602.778,1059.57 c -5.811,-9.77 -23.808,-33.77 -42.144,-27.89 -11.608,3.73 -13.905,15.9 -15.772,26.65 -2.483,14.3 1.989,42.58 5.866,52.8 3.72,9.82 14.919,28.78 22.228,36.01 8.995,8.87 20.164,37.13 21.933,40.06 2.787,4.63 6.487,11.59 17.407,10.72 12.047,-0.97 19.357,-7.36 24.728,-8.44 13.268,-2.66 -19.125,-104.49 -34.246,-129.91 z"
   fill="#000000"
   fill-rule="nonzero"
   opacity="1"
   stroke="none"
   vectornator:layerName="path"
   id="path28" />
<path
   d="m 590.937,1118.78 c -0.557,-2.31 0.03,-6.2 0.6,-9.97 0.523,-3.43 1.013,-6.67 0.713,-8.96 -1.127,-8.58 -7.487,-24.88 -11.642,-33.72 -4.78,-10.16 -12.512,-22.96 -22.22,-26.27 -4.012,-1.36 -6.651,0.27 -8.184,1.93 -1.123,1.22 -1.372,2.65 -1.005,2.82 0.363,0.17 1.204,-1.02 2.416,-2.13 0.992,-0.91 2.445,-1.7 4.438,-1.54 -0.803,4.27 -4.928,27.41 -3.142,43.18 1.406,12.41 6.727,21.67 7.559,23.06 0.122,1.46 0.325,2.89 0.625,4.28 3.923,18.1 20.991,38.69 26.932,45.43 1.094,1.24 2.243,1.98 2.526,1.68 0.278,-0.3 -0.397,-1.54 -1.491,-2.79 -5.861,-6.69 -22.765,-27.2 -26.557,-44.67 -4.02,-18.53 9.789,-46.01 12.871,-51.82 1.567,2.73 2.901,5.35 3.927,7.54 0.803,1.71 1.698,3.72 2.614,5.89 -1.811,3.03 -14.501,25.16 -9.873,42.87 1.715,6.53 9.438,14.95 14.556,17.25 2.817,1.28 3.881,3.17 5.106,5.37 1.418,2.55 3.031,5.44 7.719,7.54 0.95,0.43 1.811,0.6 2.576,0.6 1.321,0 2.326,-0.54 3.061,-1.17 0.076,1.12 0.072,2.55 0.038,3.87 -0.051,1.71 0.177,3.11 0.579,3.15 0.397,0.03 0.827,-1.32 0.874,-3.03 0.067,-2.09 0.055,-4.69 -0.304,-5.92 -1.048,-3.66 -4.257,-7.78 -7.656,-12.14 -3.332,-4.31 -6.786,-8.75 -7.656,-12.33 z m -30.602,-16.05 c -9.193,-28.42 2.77,-52.95 4.83,-56.85 3.59,3.27 6.757,7.64 9.333,11.92 -1.875,3.42 -13.779,25.82 -14.163,44.93 z m 39.656,41.58 c -4.24,-1.89 -5.655,-4.44 -7.036,-6.9 -1.237,-2.22 -2.525,-4.52 -5.78,-5.99 -0.71,-0.32 -1.487,-0.81 -2.289,-1.37 -10.498,-24.94 1.148,-35.84 4.066,-38.07 0.891,3.05 1.558,5.84 1.854,8.08 0.266,2.06 -0.22,5.34 -0.705,8.5 -0.6,3.92 -1.208,7.98 -0.579,10.61 0.955,3.91 4.514,8.48 7.956,12.91 3.053,3.92 6.191,7.97 7.267,11.27 -0.456,0.66 -1.9,2.24 -4.754,0.96 z"
   fill="#000000"
   fill-rule="nonzero"
   opacity="1"
   stroke="none"
   vectornator:layerName="path"
   id="path30" />
</g>
<g
   opacity="1"
   vectornator:layerName="svga-group-ears-right"
   id="g38">
<path
   d="m 1049.27,1059.57 c 5.82,-9.77 23.81,-33.77 42.14,-27.89 11.62,3.73 13.91,15.9 15.78,26.65 2.48,14.3 -1.99,42.58 -5.87,52.8 -3.72,9.82 -14.91,28.78 -22.23,36.01 -8.99,8.87 -20.17,37.13 -21.93,40.06 -2.78,4.63 -6.48,11.59 -17.4,10.72 -12.05,-0.97 -19.36,-7.36 -24.74,-8.44 -13.26,-2.66 19.13,-104.49 34.25,-129.91 z"
   fill="#000000"
   fill-rule="nonzero"
   opacity="1"
   stroke="none"
   vectornator:layerName="path"
   id="path34" />
<path
   d="m 1053.46,1131.1 c -3.4,4.36 -6.61,8.48 -7.66,12.14 -0.36,1.23 -0.37,3.83 -0.3,5.92 0.05,1.71 0.47,3.06 0.87,3.03 0.4,-0.03 0.62,-1.44 0.58,-3.15 -0.04,-1.32 -0.04,-2.75 0.04,-3.87 0.74,0.63 1.74,1.17 3.06,1.17 0.77,0 1.63,-0.17 2.57,-0.6 4.69,-2.1 6.3,-4.99 7.72,-7.54 1.22,-2.19 2.3,-4.09 5.11,-5.36 5.12,-2.31 12.84,-10.73 14.55,-17.26 4.63,-17.71 -8.05,-39.84 -9.87,-42.87 0.92,-2.17 1.82,-4.17 2.62,-5.89 1.03,-2.19 2.36,-4.81 3.92,-7.54 3.08,5.81 16.89,33.29 12.88,51.82 -3.79,17.47 -20.69,37.98 -26.56,44.67 -1.09,1.25 -1.76,2.49 -1.49,2.79 0.28,0.3 1.43,-0.44 2.53,-1.68 5.94,-6.74 23.01,-27.32 26.94,-45.43 0.29,-1.39 0.49,-2.82 0.61,-4.28 0.83,-1.39 6.16,-10.65 7.57,-23.06 1.78,-15.77 -2.35,-38.9 -3.15,-43.17 2,-0.17 3.44,0.61 4.44,1.53 1.21,1.11 2.05,2.3 2.42,2.13 0.36,-0.17 0.11,-1.6 -1.01,-2.82 -1.53,-1.66 -4.17,-3.29 -8.18,-1.92 -9.71,3.3 -17.45,16.1 -22.22,26.27 -4.16,8.83 -10.52,25.13 -11.65,33.71 -0.3,2.29 0.19,5.53 0.72,8.96 0.57,3.77 1.15,7.66 0.6,9.97 -0.87,3.59 -4.32,8.03 -7.66,12.33 z m 24.09,-73.3 c 2.58,-4.28 5.75,-8.65 9.34,-11.93 2.06,3.91 14.02,28.43 4.84,56.86 -0.4,-19.11 -12.3,-41.51 -14.18,-44.93 z m -30.25,85.56 c 1.08,-3.31 4.22,-7.36 7.27,-11.28 3.45,-4.42 7,-9 7.96,-12.91 0.63,-2.62 0.02,-6.68 -0.58,-10.61 -0.48,-3.16 -0.97,-6.43 -0.7,-8.49 0.29,-2.24 0.96,-5.04 1.85,-8.09 2.92,2.24 14.56,13.14 4.08,38.08 -0.81,0.56 -1.59,1.05 -2.3,1.36 -3.25,1.47 -4.53,3.77 -5.78,6 -1.38,2.46 -2.79,5.01 -7.03,6.89 -2.86,1.28 -4.31,-0.3 -4.77,-0.95 z"
   fill="#000000"
   fill-rule="nonzero"
   opacity="1"
   stroke="none"
   vectornator:layerName="path"
   id="path36" />
</g>
<g
   opacity="1"
   vectornator:layerName="svga-group-faceshape-single"
   id="g46">
<path
   d="m 826.588,708.627 c -141.973,-0.224 -256.811,114.149 -257.031,255.506 -0.034,22.448 2.825,44.227 8.247,64.987 h 0.017 c 0.047,0.22 37.35,148.51 64.925,224.68 23.555,65.07 97.212,123.73 183.842,123.73 86.626,0 160.287,-58.66 183.842,-123.73 27.57,-76.17 64.87,-224.46 64.92,-224.68 h 0.03 c 5.41,-20.76 8.28,-42.535 8.24,-64.987 C 1083.4,822.776 968.561,708.403 826.588,708.627 Z"
   fill="#000000"
   fill-rule="nonzero"
   opacity="1"
   stroke="none"
   vectornator:layerName="path"
   id="path40" />
<path
   d="m 1024.07,800.548 c 31.46,42.861 50.17,96.295 50.26,154.291 0.04,22.448 -2.72,44.225 -7.95,64.981 h -0.02 c -0.05,0.23 -35.99,148.52 -62.57,224.69 -22.7,65.07 -93.706,123.72 -177.198,123.72 -83.496,0 -154.489,-58.65 -177.191,-123.72 -26.586,-76.17 -62.535,-224.46 -62.581,-224.69 h -0.017 c -5.224,-20.756 -7.985,-42.529 -7.947,-64.981 0.088,-57.979 18.782,-111.401 50.229,-154.253 -37.08,44.301 -59.422,101.299 -59.519,163.543 -0.034,22.448 2.825,44.221 8.247,64.981 h 0.017 c 0.046,0.23 37.35,148.52 64.924,224.69 23.555,65.07 97.213,123.72 183.842,123.72 86.626,0 160.288,-58.65 183.844,-123.72 27.57,-76.17 64.87,-224.46 64.92,-224.69 h 0.02 c 5.42,-20.76 8.29,-42.529 8.25,-64.981 -0.1,-62.26 -22.46,-119.276 -59.56,-163.581 z"
   fill="#000000"
   fill-rule="nonzero"
   opacity="1"
   stroke="none"
   vectornator:layerName="path"
   id="path42" />
<path
   d="m 826.588,708.627 c -141.973,-0.224 -256.811,114.149 -257.031,255.506 -0.034,22.448 2.825,44.227 8.247,64.987 h 0.017 c 0.047,0.22 37.35,148.51 64.925,224.68 23.555,65.07 97.212,123.73 183.842,123.73 86.626,0 160.287,-58.66 183.842,-123.73 27.57,-76.17 64.87,-224.46 64.92,-224.68 h 0.03 c 5.41,-20.76 8.28,-42.535 8.24,-64.987 C 1083.4,822.776 968.561,708.403 826.588,708.627 Z"
   fill="#000000"
   fill-rule="nonzero"
   opacity="1"
   stroke="none"
   vectornator:layerName="path"
   id="path44" />
</g>
<g
   opacity="1"
   vectornator:layerName="svga-group-mouth-single"
   id="g58">
<path
   d="m 826.588,1302.21 c -17.558,0 -21.675,-13.65 -21.675,-13.65 h 43.355 c 0,0 -6.237,13.65 -21.68,13.65 z"
   fill="#000000"
   fill-rule="nonzero"
   opacity="1"
   stroke="none"
   vectornator:layerName="path"
   id="path48" />
<path
   d="m 773.947,1266.42 c 11.638,-4.01 26.346,-15.3 35.606,-15.72 4.785,-0.21 9.928,3.68 15.092,4.93 3.594,0.87 13.784,-4.89 17.44,-4.93 9.595,-0.09 26.714,11.7 37.03,15.72 0.57,0.24 0,0 0,0 0,0 -21.35,25.43 -52.582,25.43 -35.349,-0.01 -52.586,-25.43 -52.586,-25.43 0,0 -0.578,0.21 0,0 z"
   fill="#000000"
   fill-rule="nonzero"
   opacity="1"
   stroke="none"
   vectornator:layerName="path"
   id="path50" />
<path
   d="m 880.665,1266.18 c -0.79,-0.32 -2.559,-0.12 -3.18,-0.09 -1.284,0.07 -2.306,-0.49 -5.127,-0.55 -3.133,-0.05 -16.658,-1.13 -21.126,-1.42 -8.99,-0.61 -16.148,2.81 -24.695,2.81 -8.551,0 -16.333,-3.73 -25.319,-3.12 -4.464,0.3 -17.369,1.66 -20.51,1.73 -2.8,0.09 -3.898,0.57 -5.199,0.51 -0.603,-0.03 -2.512,-0.21 -3.255,0.21 -0.621,0.37 -0.38,2.36 0.114,2.89 1.203,1.26 5.899,-0.99 8.272,-0.93 3.281,0.07 16.228,-0.21 20.763,-0.51 8.788,-0.6 16.621,3.46 25.134,3.46 8.513,0 15.73,-3.75 24.518,-3.16 4.522,0.31 18.077,0.27 21.367,0.21 2.377,-0.06 7.449,1.89 8.665,0.93 0.57,-0.47 0.27,-2.69 -0.422,-2.97 z"
   fill="#000000"
   fill-rule="nonzero"
   opacity="1"
   stroke="none"
   vectornator:layerName="path"
   id="path52" />
<path
   d="m 826.533,1285.34 c -14.231,0 -28.06,-4.88 -39.022,-13.96 5.519,-0.31 11.198,-1.17 16.726,-0.93 6.811,0.3 13.276,2.98 20.083,3.43 7.356,0.49 14.18,-2.06 21.384,-2.93 6.005,-0.72 12.377,0.25 18.399,0.47 -10.772,8.27 -23.825,13.92 -37.57,13.92 z m 20.231,-24.31 c 5.545,-0.34 11.237,0.37 16.781,0.59 -6.038,-3 -12.469,-6.56 -19.209,-7.63 -5.802,-0.92 -11.443,3.73 -17.081,4.66 -6.359,1.06 -11.359,-4.85 -17.567,-4.85 -6.722,0.29 -13.504,4.64 -19.323,7.62 5.414,-0.32 10.979,-1.11 16.401,-0.6 6.638,0.62 13.066,3.02 19.771,3.02 6.85,0 13.391,-2.4 20.227,-2.81 z"
   fill="#000000"
   fill-rule="nonzero"
   opacity="1"
   stroke="none"
   vectornator:layerName="path"
   id="path54" />
<path
   d="m 826.33,1281.31 c -8.568,0 -16.92,-2.96 -24.099,-8.45 1.605,-0.15 3.226,-0.28 4.784,-0.28 0.495,0 0.989,0.02 1.483,0.04 2.571,0.14 5.105,0.88 7.795,1.67 2.61,0.75 5.304,1.53 8.12,1.77 0.558,0.05 1.115,0.06 1.668,0.06 3.459,0 6.74,-0.86 9.915,-1.68 2.014,-0.53 3.919,-1.04 5.878,-1.32 1.069,-0.17 2.226,-0.25 3.535,-0.25 1.131,0 2.297,0.06 3.454,0.15 -5.975,4.43 -13.711,8.29 -22.533,8.29 z"
   fill="#000000"
   fill-rule="nonzero"
   opacity="1"
   stroke="none"
   vectornator:layerName="path"
   id="path56" />
</g>
<g
   opacity="1"
   vectornator:layerName="svga-group-eyes-left"
   id="g92">
<path
   d="m 665.912,1061.89 c -2.137,-9.65 21.92,-16.78 53.675,-12.89 31.747,3.9 53.79,23.33 50.893,33.13 -1.604,5.43 -44.926,13.7 -60.187,12.02 -15.472,-1.71 -39.221,-8.97 -44.381,-32.26 z"
   fill="#000000"
   fill-rule="nonzero"
   opacity="1"
   stroke="none"
   vectornator:layerName="path"
   id="path60" />
<g
   opacity="1"
   vectornator:layerName="svga-group-eyesiris-left"
   id="g78">
<path
   d="m 753.737,1070.23 c 0,19.83 -16.072,35.9 -35.889,35.9 -19.822,0 -35.898,-16.07 -35.898,-35.9 v 0 c 0,-19.82 16.076,-35.89 35.898,-35.89 19.817,0 35.889,16.07 35.889,35.89 z"
   fill="#000000"
   fill-rule="nonzero"
   opacity="1"
   stroke="none"
   vectornator:layerName="path"
   id="path62" />
<path
   d="m 713.823,1034.74 c -0.139,0.02 -0.278,0.04 -0.426,0.05 0.173,0.81 0.342,1.62 0.507,2.43 -0.03,-0.82 -0.051,-1.66 -0.081,-2.48 z m 0.076,2.47 c 0.418,11.8 1.107,22.31 3.091,26.11 1.052,-4.16 -0.73,-14.54 -3.091,-26.11 z m 3.1,26.12 c -0.258,1 -0.646,1.68 -1.242,1.91 -0.599,0.22 -1.347,-0.04 -2.2,-0.62 0.245,1 0.22,1.78 -0.215,2.27 -0.431,0.48 -1.203,0.6 -2.225,0.46 0.675,0.78 1.022,1.49 0.87,2.12 -0.165,0.62 -0.799,1.08 -1.753,1.44 0.95,0.38 1.588,0.84 1.736,1.47 0.152,0.62 -0.195,1.33 -0.866,2.1 1.018,-0.12 1.799,0.01 2.217,0.49 0.426,0.48 0.448,1.27 0.211,2.27 0.84,-0.58 1.588,-0.84 2.187,-0.6 0.604,0.22 0.989,0.91 1.229,1.91 0.482,-0.91 1.026,-1.49 1.672,-1.55 0.625,-0.09 1.297,0.35 1.968,1.13 0.009,-1.03 0.224,-1.79 0.765,-2.16 0.523,-0.36 1.313,-0.29 2.267,0.08 -0.464,-0.91 -0.625,-1.68 -0.329,-2.26 0.3,-0.57 1.034,-0.87 2.056,-0.99 -0.84,-0.59 -1.355,-1.19 -1.343,-1.84 -0.004,-0.65 0.503,-1.25 1.356,-1.83 -1.018,-0.13 -1.74,-0.44 -2.044,-1 -0.295,-0.57 -0.131,-1.35 0.342,-2.26 -0.967,0.36 -1.744,0.43 -2.272,0.07 -0.532,-0.37 -0.747,-1.13 -0.751,-2.16 -0.667,0.77 -1.335,1.19 -1.977,1.11 -0.641,-0.09 -1.19,-0.65 -1.659,-1.56 z m 3.632,0.45 c 2.867,-3.2 6.106,-13.22 9.391,-24.55 -5.11,10.63 -9.383,20.25 -9.391,24.55 z m 9.387,-24.55 c 0.359,-0.73 0.726,-1.47 1.068,-2.22 -0.127,-0.04 -0.253,-0.1 -0.38,-0.15 -0.228,0.79 -0.456,1.59 -0.688,2.37 z m -6.36,26.63 c 4.025,-1.5 11.554,-8.87 19.725,-17.37 -9.459,7.04 -17.723,13.57 -19.725,17.37 z m 19.725,-17.37 c 0.599,-0.45 1.212,-0.9 1.828,-1.34 -0.089,-0.11 -0.181,-0.2 -0.253,-0.3 -0.524,0.54 -1.043,1.1 -1.575,1.64 z m -18.036,20.64 c 4.265,0.53 14.353,-2.5 25.556,-6.23 -11.659,1.84 -22.009,3.78 -25.556,6.23 z m 25.556,-6.23 c 0.659,-0.09 1.343,-0.2 2.019,-0.31 -0.03,-0.11 -0.055,-0.23 -0.085,-0.34 -0.641,0.21 -1.3,0.43 -1.934,0.65 z m -25.564,9.89 c 3.53,2.46 13.867,4.47 25.497,6.36 -11.157,-3.79 -21.228,-6.87 -25.497,-6.36 z m 25.497,6.36 c 0.57,0.2 1.144,0.4 1.706,0.58 0.029,-0.1 0.055,-0.2 0.076,-0.3 -0.579,-0.08 -1.187,-0.18 -1.782,-0.28 z m -27.22,-3.11 c 1.989,3.81 10.219,10.4 19.632,17.49 -8.125,-8.55 -15.608,-15.96 -19.632,-17.49 z m 19.64,17.48 c 0.351,0.37 0.718,0.75 1.068,1.13 0.06,-0.07 0.114,-0.13 0.182,-0.19 -0.418,-0.32 -0.849,-0.63 -1.25,-0.94 z m -22.659,-15.4 c -0.017,4.3 4.201,13.94 9.252,24.6 -3.226,-11.35 -6.402,-21.39 -9.252,-24.6 z m 9.256,24.6 c 0.127,0.45 0.262,0.91 0.38,1.37 0.089,-0.03 0.152,-0.06 0.232,-0.08 -0.202,-0.43 -0.409,-0.87 -0.612,-1.29 z m -12.905,-24.18 c -2.01,3.81 -2.757,14.3 -3.243,26.09 2.424,-11.54 4.269,-21.91 3.243,-26.09 z m -3.239,26.09 c -0.097,0.45 -0.185,0.91 -0.278,1.37 0.084,0.01 0.148,0.02 0.232,0.03 0.013,-0.46 0.034,-0.94 0.046,-1.4 z m -0.177,-27.4 c -3.564,2.43 -9.096,11.39 -15.003,21.6 7.508,-9.1 13.964,-17.43 15.003,-21.6 z m -14.999,21.6 c -0.313,0.38 -0.642,0.78 -0.967,1.15 0.076,0.05 0.143,0.09 0.224,0.15 0.245,-0.44 0.498,-0.87 0.743,-1.3 z m 12.575,-24.35 c -4.286,0.5 -13.344,5.85 -23.318,12.14 10.882,-4.56 20.451,-8.92 23.318,-12.14 z m -23.318,12.16 c -0.515,0.21 -1.043,0.43 -1.571,0.65 0.038,0.08 0.089,0.16 0.14,0.24 0.481,-0.29 0.958,-0.6 1.431,-0.89 z m 22.444,-15.73 c -4.016,-1.54 -14.53,-1 -26.295,-0.06 11.756,1 22.267,1.58 26.295,0.06 z m -26.291,-0.06 c -0.637,-0.06 -1.3,-0.12 -1.93,-0.18 -0.004,0.12 -0.012,0.23 -0.004,0.34 0.655,-0.06 1.301,-0.12 1.934,-0.16 z m 27.174,-3.5 c -2.83,-3.22 -12.381,-7.63 -23.221,-12.26 9.927,6.34 18.956,11.75 23.221,12.26 z m -23.221,-12.26 c -0.621,-0.4 -1.254,-0.8 -1.884,-1.21 -0.055,0.11 -0.109,0.23 -0.173,0.33 0.693,0.3 1.39,0.59 2.057,0.88 z m 25.661,9.53 c -1.009,-4.18 -7.423,-12.53 -14.868,-21.67 5.849,10.24 11.33,19.22 14.868,21.67 z m -14.864,-21.67 c -0.401,-0.69 -0.794,-1.39 -1.186,-2.09 -0.11,0.08 -0.233,0.16 -0.334,0.23 0.503,0.62 1.026,1.24 1.52,1.86 z"
   fill="#000000"
   fill-rule="nonzero"
   opacity="1"
   stroke="none"
   vectornator:layerName="path"
   id="path64" />
<path
   d="m 723.143,1034.86 c -0.144,-0.02 -0.279,-0.05 -0.422,-0.06 -0.047,0.82 -0.093,1.66 -0.144,2.47 0.182,-0.8 0.38,-1.61 0.566,-2.41 z m -0.57,2.41 c -2.648,11.5 -4.704,21.83 -3.767,26.02 2.095,-3.75 3.049,-14.24 3.767,-26.02 z m -3.762,26.02 c -0.503,0.9 -1.056,1.45 -1.694,1.52 -0.633,0.06 -1.292,-0.38 -1.959,-1.16 -0.026,1.02 -0.254,1.77 -0.794,2.13 -0.541,0.35 -1.322,0.27 -2.276,-0.13 0.452,0.93 0.604,1.7 0.291,2.27 -0.316,0.56 -1.051,0.84 -2.065,0.94 0.82,0.61 1.318,1.22 1.301,1.86 -0.013,0.65 -0.532,1.24 -1.381,1.81 1.014,0.14 1.731,0.47 2.019,1.04 0.282,0.58 0.105,1.35 -0.385,2.25 0.967,-0.34 1.749,-0.39 2.268,-0.01 0.519,0.37 0.718,1.14 0.692,2.17 0.701,-0.75 1.373,-1.18 2.019,-1.07 0.625,0.08 1.157,0.68 1.613,1.6 0.27,-1 0.676,-1.67 1.292,-1.89 0.604,-0.21 1.343,0.06 2.175,0.67 -0.215,-1 -0.173,-1.79 0.266,-2.27 0.439,-0.47 1.225,-0.57 2.246,-0.43 -0.663,-0.79 -1.005,-1.5 -0.823,-2.13 0.165,-0.62 0.811,-1.07 1.786,-1.42 -0.954,-0.38 -1.571,-0.87 -1.718,-1.49 -0.136,-0.63 0.223,-1.33 0.92,-2.09 -1.026,0.1 -1.803,-0.04 -2.213,-0.53 -0.418,-0.48 -0.43,-1.28 -0.164,-2.27 -0.849,0.57 -1.605,0.8 -2.2,0.56 -0.621,-0.24 -0.997,-0.93 -1.216,-1.93 z m 3.395,1.38 c 3.597,-2.35 9.315,-11.19 15.421,-21.28 -7.685,8.94 -14.302,17.13 -15.421,21.28 z m 15.421,-21.29 c 0.532,-0.61 1.077,-1.23 1.605,-1.86 -0.114,-0.08 -0.22,-0.17 -0.33,-0.25 -0.426,0.71 -0.853,1.42 -1.275,2.11 z m -13.04,24.09 c 4.278,-0.42 13.458,-5.58 23.551,-11.69 -10.963,4.36 -20.637,8.53 -23.551,11.69 z m 23.546,-11.68 c 0.697,-0.28 1.407,-0.56 2.116,-0.83 -0.059,-0.12 -0.123,-0.23 -0.169,-0.35 -0.646,0.39 -1.292,0.79 -1.947,1.18 z m -22.76,15.26 c 3.982,1.62 14.513,1.31 26.295,0.6 -11.735,-1.24 -22.233,-2.04 -26.295,-0.6 z m 26.295,0.6 c 0.667,0.08 1.351,0.15 2.027,0.23 0.004,-0.12 0.008,-0.24 0.012,-0.35 -0.68,0.04 -1.372,0.08 -2.039,0.12 z m -27.245,2.95 c 2.765,3.29 12.237,7.9 22.98,12.74 -9.801,-6.55 -18.728,-12.14 -22.98,-12.74 z m 22.98,12.73 c 0.494,0.34 0.996,0.68 1.495,1.01 0.055,-0.09 0.101,-0.18 0.147,-0.27 -0.536,-0.24 -1.097,-0.48 -1.642,-0.74 z m -25.489,-10.04 c 0.933,4.19 7.175,12.68 14.438,21.98 -5.638,-10.38 -10.946,-19.47 -14.438,-21.98 z m 14.442,21.96 c 0.249,0.45 0.494,0.92 0.743,1.38 0.076,-0.06 0.144,-0.1 0.224,-0.15 -0.325,-0.41 -0.654,-0.83 -0.967,-1.23 z m -17.896,-20.74 c -1.127,4.15 0.452,14.56 2.567,26.16 -0.181,-11.8 -0.646,-22.32 -2.567,-26.16 z m 2.567,26.16 c 0.009,0.47 0.017,0.95 0.017,1.42 0.089,-0.01 0.161,-0.02 0.245,-0.02 -0.084,-0.47 -0.173,-0.94 -0.262,-1.4 z m -6.203,-26.69 c -2.926,3.16 -6.368,13.1 -9.885,24.36 5.325,-10.53 9.801,-20.06 9.885,-24.36 z m -9.885,24.36 c -0.211,0.41 -0.418,0.82 -0.621,1.25 0.072,0.03 0.135,0.05 0.215,0.08 0.131,-0.44 0.275,-0.89 0.406,-1.33 z m 6.925,-26.52 c -4.071,1.43 -11.735,8.65 -20.083,16.98 9.611,-6.84 18.001,-13.21 20.083,-16.98 z m -20.083,16.98 c -0.402,0.29 -0.82,0.59 -1.225,0.87 0.059,0.07 0.114,0.12 0.173,0.19 0.346,-0.35 0.705,-0.7 1.052,-1.06 z m 18.449,-20.26 c -4.265,-0.63 -14.396,2.2 -25.666,5.7 11.697,-1.6 22.068,-3.34 25.666,-5.7 z m -25.666,5.7 c -0.553,0.08 -1.119,0.15 -1.689,0.23 0.021,0.09 0.046,0.18 0.076,0.27 0.54,-0.16 1.081,-0.33 1.613,-0.5 z m 25.75,-9.37 c -3.479,-2.53 -13.779,-4.73 -25.378,-6.87 11.089,4.01 21.092,7.29 25.378,6.87 z M 684.936,1062 c -0.604,-0.22 -1.225,-0.45 -1.825,-0.67 -0.033,0.11 -0.067,0.22 -0.088,0.33 0.646,0.11 1.292,0.22 1.913,0.34 z m 27.152,3.66 c -1.9,-3.85 -9.979,-10.58 -19.26,-17.86 7.951,8.7 15.274,16.26 19.26,17.86 z m -19.26,-17.86 c -0.498,-0.55 -0.997,-1.1 -1.499,-1.65 -0.089,0.09 -0.173,0.19 -0.258,0.28 0.591,0.46 1.187,0.92 1.757,1.37 z m 22.326,15.85 c 0.101,-4.3 -3.928,-14.03 -8.754,-24.78 2.994,11.4 5.971,21.5 8.754,24.78 z m -8.754,-24.78 c -0.207,-0.77 -0.406,-1.55 -0.608,-2.33 -0.123,0.05 -0.262,0.09 -0.38,0.14 0.329,0.73 0.667,1.47 0.988,2.19 z"
   fill="#000000"
   fill-rule="nonzero"
   opacity="1"
   stroke="none"
   vectornator:layerName="path"
   id="path66" />
<path
   d="m 731.922,1070.23 c 0,7.78 -6.3,14.08 -14.074,14.08 -7.774,0 -14.083,-6.3 -14.083,-14.08 0,-7.77 6.309,-14.07 14.083,-14.07 7.782,0 14.074,6.3 14.074,14.07 z"
   fill="#000000"
   fill-rule="nonzero"
   opacity="1"
   stroke="none"
   vectornator:layerName="path"
   id="path68" />
<path
   d="m 731.922,1070.23 c 0,7.78 -6.3,14.08 -14.074,14.08 -7.774,0 -14.083,-6.3 -14.083,-14.08 0,-7.77 6.309,-14.07 14.083,-14.07 7.782,0 14.074,6.3 14.074,14.07 z"
   fill="#000000"
   fill-rule="nonzero"
   opacity="0.9"
   stroke="none"
   vectornator:layerName="path"
   id="path70" />
<path
   d="m 698.208,1086.67 c 2.685,-1.8 6.334,-1.07 8.137,1.61 1.803,2.69 1.089,6.33 -1.601,8.14 -2.694,1.81 -6.334,1.08 -8.137,-1.6 -1.803,-2.69 -1.089,-6.34 1.601,-8.15 z"
   fill="#000000"
   fill-rule="nonzero"
   opacity="0.5"
   stroke="none"
   vectornator:layerName="path"
   id="path72" />
<path
   d="m 728.97,1068.27 c -1.503,2.24 -5.797,1.98 -9.606,-0.57 -3.813,-2.55 -5.684,-6.44 -4.185,-8.68 h 0.004 c 1.495,-2.24 5.794,-1.98 9.603,0.58 3.813,2.55 5.684,6.43 4.189,8.67 -0.005,0 -0.005,0 -0.005,0 z"
   fill="#000000"
   fill-rule="nonzero"
   opacity="0.5"
   stroke="none"
   vectornator:layerName="path"
   id="path74" />
<path
   d="m 746.06,1062.3 c -3.404,5.22 -12.178,5.53 -19.598,0.7 -7.415,-4.83 -10.671,-12.98 -7.271,-18.2 3.403,-5.22 12.178,-5.54 19.597,-0.7 7.411,4.83 10.663,12.99 7.272,18.2 z"
   fill="#000000"
   fill-rule="nonzero"
   opacity="0.75"
   stroke="none"
   vectornator:layerName="path"
   id="path76" />
</g>
<g
   opacity="1"
   vectornator:layerName="svga-group-eyesfront-left"
   id="g90">
<path
   d="m 638.667,1076.57 c 0,58.3 34.035,105.56 76.009,105.56 41.975,0 76.01,-47.26 76.01,-105.56 0,-58.31 -34.035,-105.571 -76.01,-105.571 -41.974,0 -76.009,47.261 -76.009,105.571 z m 27.245,-14.68 c -2.137,-9.65 21.92,-16.78 53.675,-12.89 31.747,3.9 53.79,23.33 50.893,33.13 -1.604,5.43 -44.926,13.7 -60.187,12.02 -15.472,-1.71 -39.221,-8.97 -44.381,-32.26 z"
   fill="#000000"
   fill-rule="nonzero"
   opacity="1"
   stroke="none"
   vectornator:layerName="path"
   id="path80" />
<path
   d="m 710.293,1094.15 c 15.261,1.68 58.583,-6.59 60.187,-12.02 2.901,-9.8 -19.146,-29.23 -50.893,-33.13 -27.279,-3.34 -48.827,1.46 -53.02,8.99 3.792,-27.03 32.515,-48.13 67.509,-48.28 37.629,-0.16 68.189,23.96 68.29,53.9 0.089,29.93 -30.34,54.31 -67.965,54.48 -37.638,0.16 -68.193,-23.97 -68.295,-53.9 0,-0.44 0.068,-0.88 0.081,-1.32 5.62,22.49 28.862,29.59 44.106,31.28 z"
   fill="#000000"
   fill-rule="nonzero"
   opacity="1"
   stroke="none"
   vectornator:layerName="path"
   id="path82" />
<path
   d="m 665.912,1061.89 c -2.137,-9.65 21.92,-16.78 53.675,-12.89 31.747,3.9 53.79,23.33 50.893,33.13 -1.604,5.43 -44.926,13.7 -60.187,12.02 -15.472,-1.71 -39.221,-8.97 -44.381,-32.26 z"
   fill="#000000"
   fill-rule="nonzero"
   opacity="1"
   stroke="none"
   vectornator:layerName="path"
   id="path84" />
<path
   d="m 667.588,1040.32 c 17.77,-8.35 39.483,-9.12 58.435,-4.24 10.151,2.37 20.966,5.43 29.825,11.14 8.214,4.79 14.886,10.56 21.123,17.69 -5.667,-7.18 -11.71,-13.16 -19.522,-18.03 -9.611,-5.98 -20.139,-9.68 -31.097,-12.31 -19.369,-4.76 -41.058,-3.68 -58.764,5.75 z"
   fill="#000000"
   fill-rule="nonzero"
   opacity="1"
   stroke="none"
   vectornator:layerName="path"
   id="path86" />
<path
   d="m 646.344,1046.89 c 0,0 9.83,3.72 15.181,2.62 -1.647,-1.94 -4.629,-6.77 -4.629,-6.77 0,0 7.825,2.32 13.306,0.13 3.716,-1.49 17.166,-4.22 23.04,-4.5 7.123,-0.35 21.422,0.53 28.44,1.79 14.248,2.57 37.941,11.11 49.313,30.34 1.077,2.41 5.942,3.89 5.942,3.89 0,0 -4.307,-0.91 -4.852,0.17 -1.191,2.37 5.481,8.52 6.317,9.28 -0.68,-0.61 -5.443,-4.79 -7.272,-4.08 -0.257,0.09 -0.578,1.63 -0.654,2.03 1.267,-10.24 -20.43,-28.48 -50.893,-32.11 -31.755,-3.77 -55.812,3.14 -53.675,12.49 5.16,22.59 28.909,29.62 44.381,31.27 10.667,1.15 35.04,-2.43 49.301,-6.49 l 4.269,-1.34 c -8.441,4.26 -31.772,9.27 -41.244,10.15 -3.142,0.3 -9.459,0.44 -12.609,0.36 -25.121,-0.67 -42.903,-13.42 -49.529,-30.66 -0.528,-1.38 -2.086,-2.61 -3.538,-2.94 -6.774,-1.52 -21.52,-7.64 -21.52,-7.64 9.797,1.52 14.708,2.84 22.402,0.25 -7.512,-2.82 -11.477,-8.24 -11.477,-8.24 z"
   fill="#000000"
   fill-rule="nonzero"
   opacity="1"
   stroke="none"
   vectornator:layerName="path"
   id="path88" />
</g>
</g>
<g
   opacity="1"
   vectornator:layerName="svga-group-eyes-right"
   id="g126">
<path
   d="m 987.247,1061.89 c 2.137,-9.65 -21.92,-16.78 -53.676,-12.89 -31.746,3.9 -53.789,23.33 -50.892,33.13 1.604,5.43 44.926,13.7 60.187,12.02 15.472,-1.71 39.221,-8.97 44.381,-32.26 z"
   fill="#000000"
   fill-rule="nonzero"
   opacity="1"
   stroke="none"
   vectornator:layerName="path"
   id="path94" />
<g
   opacity="1"
   vectornator:layerName="svga-group-eyesiris-right"
   id="g112">
<path
   d="m 971.209,1070.23 c 0,19.83 -16.072,35.9 -35.889,35.9 -19.822,0 -35.898,-16.07 -35.898,-35.9 v 0 c 0,-19.82 16.076,-35.89 35.898,-35.89 19.817,0 35.889,16.07 35.889,35.89 z"
   fill="#000000"
   fill-rule="nonzero"
   opacity="1"
   stroke="none"
   vectornator:layerName="path"
   id="path96" />
<path
   d="m 931.295,1034.74 c -0.139,0.02 -0.278,0.04 -0.426,0.05 0.173,0.81 0.342,1.62 0.507,2.43 -0.03,-0.82 -0.051,-1.66 -0.081,-2.48 z m 0.076,2.47 c 0.418,11.8 1.107,22.31 3.091,26.11 1.052,-4.16 -0.73,-14.54 -3.091,-26.11 z m 3.1,26.12 c -0.258,1 -0.646,1.68 -1.242,1.91 -0.599,0.22 -1.347,-0.04 -2.2,-0.62 0.245,1 0.22,1.78 -0.215,2.27 -0.431,0.48 -1.203,0.6 -2.225,0.46 0.675,0.78 1.022,1.49 0.87,2.12 -0.165,0.62 -0.799,1.08 -1.753,1.44 0.95,0.38 1.588,0.84 1.736,1.47 0.152,0.62 -0.195,1.33 -0.866,2.1 1.018,-0.12 1.799,0.01 2.217,0.49 0.426,0.48 0.448,1.27 0.211,2.27 0.84,-0.58 1.588,-0.84 2.187,-0.6 0.604,0.22 0.989,0.91 1.229,1.91 0.482,-0.91 1.026,-1.49 1.672,-1.55 0.625,-0.09 1.297,0.35 1.968,1.13 0.009,-1.03 0.224,-1.79 0.765,-2.16 0.523,-0.36 1.313,-0.29 2.267,0.08 -0.464,-0.91 -0.625,-1.68 -0.329,-2.26 0.3,-0.57 1.034,-0.87 2.056,-0.99 -0.84,-0.59 -1.355,-1.19 -1.343,-1.84 -0.004,-0.65 0.503,-1.25 1.356,-1.83 -1.018,-0.13 -1.74,-0.44 -2.044,-1 -0.295,-0.57 -0.131,-1.35 0.342,-2.26 -0.967,0.36 -1.744,0.43 -2.272,0.07 -0.532,-0.37 -0.747,-1.13 -0.751,-2.16 -0.667,0.77 -1.335,1.19 -1.977,1.11 -0.641,-0.09 -1.19,-0.65 -1.659,-1.56 z m 3.631,0.45 c 2.868,-3.2 6.107,-13.22 9.392,-24.55 -5.11,10.63 -9.383,20.25 -9.392,24.55 z m 9.388,-24.55 c 0.359,-0.73 0.726,-1.47 1.068,-2.22 -0.127,-0.04 -0.253,-0.1 -0.38,-0.15 -0.228,0.79 -0.456,1.59 -0.688,2.37 z m -6.36,26.63 c 4.024,-1.5 11.554,-8.87 19.725,-17.37 -9.459,7.04 -17.723,13.57 -19.725,17.37 z m 19.725,-17.37 c 0.599,-0.45 1.212,-0.9 1.828,-1.34 -0.089,-0.11 -0.181,-0.2 -0.253,-0.3 -0.524,0.54 -1.043,1.1 -1.575,1.64 z m -18.036,20.64 c 4.265,0.53 14.353,-2.5 25.556,-6.23 -11.659,1.84 -22.009,3.78 -25.556,6.23 z m 25.556,-6.23 c 0.659,-0.09 1.343,-0.2 2.019,-0.31 -0.03,-0.11 -0.055,-0.23 -0.085,-0.34 -0.641,0.21 -1.3,0.43 -1.934,0.65 z m -25.564,9.89 c 3.53,2.46 13.867,4.47 25.497,6.36 -11.157,-3.79 -21.228,-6.87 -25.497,-6.36 z m 25.497,6.36 c 0.57,0.2 1.144,0.4 1.706,0.58 0.029,-0.1 0.055,-0.2 0.076,-0.3 -0.579,-0.08 -1.187,-0.18 -1.782,-0.28 z m -27.22,-3.11 c 1.989,3.81 10.219,10.4 19.632,17.49 -8.125,-8.55 -15.608,-15.96 -19.632,-17.49 z m 19.64,17.48 c 0.351,0.37 0.718,0.75 1.068,1.13 0.059,-0.07 0.114,-0.13 0.182,-0.19 -0.418,-0.32 -0.849,-0.63 -1.25,-0.94 z m -22.659,-15.4 c -0.017,4.3 4.201,13.94 9.252,24.6 -3.226,-11.35 -6.402,-21.39 -9.252,-24.6 z m 9.256,24.6 c 0.127,0.45 0.262,0.91 0.38,1.37 0.089,-0.03 0.152,-0.06 0.232,-0.08 -0.202,-0.43 -0.409,-0.87 -0.612,-1.29 z m -12.905,-24.18 c -2.01,3.81 -2.757,14.3 -3.243,26.09 2.424,-11.54 4.269,-21.91 3.243,-26.09 z m -3.239,26.09 c -0.097,0.45 -0.185,0.91 -0.278,1.37 0.084,0.01 0.147,0.02 0.232,0.03 0.013,-0.46 0.034,-0.94 0.046,-1.4 z m -0.177,-27.4 c -3.564,2.43 -9.096,11.39 -15.003,21.6 7.508,-9.1 13.964,-17.43 15.003,-21.6 z m -14.999,21.6 c -0.313,0.38 -0.642,0.78 -0.967,1.15 0.076,0.05 0.143,0.09 0.224,0.15 0.245,-0.44 0.498,-0.87 0.743,-1.3 z m 12.575,-24.35 c -4.286,0.5 -13.344,5.85 -23.318,12.14 10.882,-4.56 20.451,-8.92 23.318,-12.14 z m -23.318,12.16 c -0.515,0.21 -1.043,0.43 -1.571,0.65 0.038,0.08 0.089,0.16 0.14,0.24 0.481,-0.29 0.958,-0.6 1.431,-0.89 z m 22.444,-15.73 c -4.016,-1.54 -14.53,-1 -26.295,-0.06 11.756,1 22.267,1.58 26.295,0.06 z m -26.291,-0.06 c -0.637,-0.06 -1.3,-0.12 -1.93,-0.18 -0.004,0.12 -0.012,0.23 -0.004,0.34 0.655,-0.06 1.301,-0.12 1.934,-0.16 z m 27.174,-3.5 c -2.83,-3.22 -12.382,-7.63 -23.221,-12.26 9.927,6.34 18.956,11.75 23.221,12.26 z m -23.221,-12.26 c -0.621,-0.4 -1.254,-0.8 -1.884,-1.21 -0.055,0.11 -0.109,0.23 -0.173,0.33 0.693,0.3 1.389,0.59 2.057,0.88 z m 25.661,9.53 c -1.009,-4.18 -7.423,-12.53 -14.868,-21.67 5.849,10.24 11.33,19.22 14.868,21.67 z m -14.864,-21.67 c -0.401,-0.69 -0.794,-1.39 -1.186,-2.09 -0.11,0.08 -0.233,0.16 -0.334,0.23 0.503,0.62 1.026,1.24 1.52,1.86 z"
   fill="#000000"
   fill-rule="nonzero"
   opacity="1"
   stroke="none"
   vectornator:layerName="path"
   id="path98" />
<path
   d="m 940.615,1034.86 c -0.144,-0.02 -0.279,-0.05 -0.422,-0.06 -0.047,0.82 -0.093,1.66 -0.144,2.47 0.182,-0.8 0.38,-1.61 0.566,-2.41 z m -0.57,2.41 c -2.648,11.5 -4.704,21.83 -3.767,26.02 2.095,-3.75 3.049,-14.24 3.767,-26.02 z m -3.763,26.02 c -0.502,0.9 -1.055,1.45 -1.693,1.52 -0.633,0.06 -1.292,-0.38 -1.959,-1.16 -0.026,1.02 -0.254,1.77 -0.794,2.13 -0.541,0.35 -1.322,0.27 -2.276,-0.13 0.452,0.93 0.604,1.7 0.291,2.27 -0.316,0.56 -1.051,0.84 -2.065,0.94 0.82,0.61 1.318,1.22 1.301,1.86 -0.013,0.65 -0.532,1.24 -1.381,1.81 1.014,0.14 1.731,0.47 2.019,1.04 0.282,0.58 0.105,1.35 -0.385,2.25 0.967,-0.34 1.748,-0.39 2.268,-0.01 0.519,0.37 0.718,1.14 0.692,2.17 0.701,-0.75 1.373,-1.18 2.019,-1.07 0.625,0.08 1.157,0.68 1.613,1.6 0.27,-1 0.676,-1.67 1.292,-1.89 0.604,-0.21 1.343,0.06 2.175,0.67 -0.215,-1 -0.173,-1.79 0.266,-2.27 0.439,-0.47 1.225,-0.57 2.246,-0.43 -0.663,-0.79 -1.005,-1.5 -0.823,-2.13 0.165,-0.62 0.811,-1.07 1.786,-1.42 -0.954,-0.38 -1.571,-0.87 -1.718,-1.49 -0.136,-0.63 0.223,-1.33 0.92,-2.09 -1.026,0.1 -1.803,-0.04 -2.213,-0.53 -0.418,-0.48 -0.43,-1.28 -0.164,-2.27 -0.849,0.57 -1.605,0.8 -2.2,0.56 -0.621,-0.24 -0.997,-0.93 -1.217,-1.93 z m 3.396,1.38 c 3.597,-2.35 9.315,-11.19 15.421,-21.28 -7.685,8.94 -14.302,17.13 -15.421,21.28 z m 15.421,-21.29 c 0.532,-0.61 1.077,-1.23 1.605,-1.86 -0.114,-0.08 -0.22,-0.17 -0.33,-0.25 -0.426,0.71 -0.853,1.42 -1.275,2.11 z m -13.04,24.09 c 4.278,-0.42 13.458,-5.58 23.551,-11.69 -10.963,4.36 -20.637,8.53 -23.551,11.69 z m 23.546,-11.68 c 0.697,-0.28 1.406,-0.56 2.116,-0.83 -0.059,-0.12 -0.123,-0.23 -0.169,-0.35 -0.646,0.39 -1.292,0.79 -1.947,1.18 z m -22.76,15.26 c 3.982,1.62 14.513,1.31 26.295,0.6 -11.735,-1.24 -22.233,-2.04 -26.295,-0.6 z m 26.295,0.6 c 0.667,0.08 1.351,0.15 2.027,0.23 0.004,-0.12 0.008,-0.24 0.012,-0.35 -0.68,0.04 -1.372,0.08 -2.039,0.12 z m -27.245,2.95 c 2.765,3.29 12.237,7.9 22.98,12.74 -9.801,-6.55 -18.728,-12.14 -22.98,-12.74 z m 22.98,12.73 c 0.494,0.34 0.996,0.68 1.495,1.01 0.055,-0.09 0.101,-0.18 0.147,-0.27 -0.536,-0.24 -1.097,-0.48 -1.642,-0.74 z m -25.489,-10.04 c 0.933,4.19 7.175,12.68 14.438,21.98 -5.638,-10.38 -10.946,-19.47 -14.438,-21.98 z m 14.442,21.96 c 0.249,0.45 0.494,0.92 0.743,1.38 0.076,-0.06 0.144,-0.1 0.224,-0.15 -0.325,-0.41 -0.654,-0.83 -0.967,-1.23 z m -17.896,-20.74 c -1.127,4.15 0.452,14.56 2.567,26.16 -0.181,-11.8 -0.646,-22.32 -2.567,-26.16 z m 2.567,26.16 c 0.009,0.47 0.017,0.95 0.017,1.42 0.089,-0.01 0.161,-0.02 0.245,-0.02 -0.084,-0.47 -0.173,-0.94 -0.262,-1.4 z m -6.203,-26.69 c -2.926,3.16 -6.368,13.1 -9.885,24.36 5.325,-10.53 9.801,-20.06 9.885,-24.36 z m -9.885,24.36 c -0.211,0.41 -0.418,0.82 -0.621,1.25 0.072,0.03 0.135,0.05 0.215,0.08 0.131,-0.44 0.275,-0.89 0.406,-1.33 z m 6.925,-26.52 c -4.071,1.43 -11.735,8.65 -20.083,16.98 9.611,-6.84 18.001,-13.21 20.083,-16.98 z m -20.083,16.98 c -0.402,0.29 -0.82,0.59 -1.225,0.87 0.059,0.07 0.114,0.12 0.173,0.19 0.346,-0.35 0.705,-0.7 1.052,-1.06 z m 18.449,-20.26 c -4.265,-0.63 -14.396,2.2 -25.666,5.7 11.697,-1.6 22.068,-3.34 25.666,-5.7 z m -25.666,5.7 c -0.553,0.08 -1.119,0.15 -1.689,0.23 0.021,0.09 0.046,0.18 0.076,0.27 0.54,-0.16 1.081,-0.33 1.613,-0.5 z m 25.75,-9.37 c -3.479,-2.53 -13.779,-4.73 -25.378,-6.87 11.088,4.01 21.092,7.29 25.378,6.87 z M 902.408,1062 c -0.604,-0.22 -1.225,-0.45 -1.825,-0.67 -0.033,0.11 -0.067,0.22 -0.088,0.33 0.646,0.11 1.292,0.22 1.913,0.34 z m 27.152,3.66 c -1.9,-3.85 -9.979,-10.58 -19.26,-17.86 7.951,8.7 15.274,16.26 19.26,17.86 z M 910.3,1047.8 c -0.498,-0.55 -0.997,-1.1 -1.499,-1.65 -0.089,0.09 -0.173,0.19 -0.258,0.28 0.591,0.46 1.187,0.92 1.757,1.37 z m 22.326,15.85 c 0.101,-4.3 -3.928,-14.03 -8.754,-24.78 2.994,11.4 5.971,21.5 8.754,24.78 z m -8.754,-24.78 c -0.207,-0.77 -0.406,-1.55 -0.608,-2.33 -0.123,0.05 -0.262,0.09 -0.38,0.14 0.329,0.73 0.667,1.47 0.988,2.19 z"
   fill="#000000"
   fill-rule="nonzero"
   opacity="1"
   stroke="none"
   vectornator:layerName="path"
   id="path100" />
<path
   d="m 949.394,1070.23 c 0,7.78 -6.3,14.08 -14.074,14.08 -7.774,0 -14.083,-6.3 -14.083,-14.08 0,-7.77 6.309,-14.07 14.083,-14.07 7.782,0 14.074,6.3 14.074,14.07 z"
   fill="#000000"
   fill-rule="nonzero"
   opacity="1"
   stroke="none"
   vectornator:layerName="path"
   id="path102" />
<path
   d="m 949.394,1070.23 c 0,7.78 -6.3,14.08 -14.074,14.08 -7.774,0 -14.083,-6.3 -14.083,-14.08 0,-7.77 6.309,-14.07 14.083,-14.07 7.782,0 14.074,6.3 14.074,14.07 z"
   fill="#000000"
   fill-rule="nonzero"
   opacity="0.9"
   stroke="none"
   vectornator:layerName="path"
   id="path104" />
<path
   d="m 915.68,1086.67 c 2.685,-1.8 6.334,-1.07 8.137,1.61 1.803,2.69 1.089,6.33 -1.601,8.14 -2.694,1.81 -6.334,1.08 -8.137,-1.6 -1.803,-2.69 -1.089,-6.34 1.601,-8.15 z"
   fill="#000000"
   fill-rule="nonzero"
   opacity="0.5"
   stroke="none"
   vectornator:layerName="path"
   id="path106" />
<path
   d="m 946.442,1068.27 c -1.503,2.24 -5.797,1.98 -9.606,-0.57 -3.813,-2.55 -5.684,-6.44 -4.185,-8.68 h 0.004 c 1.495,-2.24 5.794,-1.98 9.603,0.58 3.813,2.55 5.684,6.43 4.189,8.67 -0.005,0 -0.005,0 -0.005,0 z"
   fill="#000000"
   fill-rule="nonzero"
   opacity="0.5"
   stroke="none"
   vectornator:layerName="path"
   id="path108" />
<path
   d="m 963.532,1062.3 c -3.404,5.22 -12.179,5.53 -19.598,0.7 -7.415,-4.83 -10.671,-12.98 -7.271,-18.2 3.403,-5.22 12.178,-5.54 19.597,-0.7 7.411,4.83 10.663,12.99 7.272,18.2 z"
   fill="#000000"
   fill-rule="nonzero"
   opacity="0.75"
   stroke="none"
   vectornator:layerName="path"
   id="path110" />
</g>
<g
   opacity="1"
   vectornator:layerName="svga-group-eyesfront-right"
   id="g124">
<path
   d="m 938.483,970.999 c -41.975,0 -76.01,47.261 -76.01,105.571 0,58.3 34.035,105.56 76.01,105.56 41.974,0 76.007,-47.26 76.007,-105.56 0,-58.31 -34.033,-105.571 -76.007,-105.571 z m 4.383,123.151 c -15.261,1.68 -58.583,-6.59 -60.187,-12.02 -2.901,-9.8 19.146,-29.23 50.892,-33.13 31.756,-3.89 55.813,3.24 53.676,12.89 -5.16,23.29 -28.909,30.55 -44.381,32.26 z"
   fill="#000000"
   fill-rule="nonzero"
   opacity="1"
   stroke="none"
   vectornator:layerName="path"
   id="path114" />
<path
   d="m 942.866,1094.15 c -15.261,1.68 -58.583,-6.59 -60.187,-12.02 -2.901,-9.8 19.146,-29.23 50.892,-33.13 27.279,-3.34 48.828,1.46 53.021,8.99 -3.792,-27.03 -32.515,-48.13 -67.509,-48.28 -37.629,-0.16 -68.189,23.96 -68.29,53.9 -0.089,29.93 30.34,54.31 67.965,54.48 37.637,0.16 68.193,-23.97 68.295,-53.9 0,-0.44 -0.068,-0.88 -0.081,-1.32 -5.62,22.49 -28.862,29.59 -44.106,31.28 z"
   fill="#000000"
   fill-rule="nonzero"
   opacity="1"
   stroke="none"
   vectornator:layerName="path"
   id="path116" />
<path
   d="m 987.247,1061.89 c 2.137,-9.65 -21.92,-16.78 -53.676,-12.89 -31.746,3.9 -53.789,23.33 -50.892,33.13 1.604,5.43 44.926,13.7 60.187,12.02 15.472,-1.71 39.221,-8.97 44.381,-32.26 z"
   fill="#000000"
   fill-rule="nonzero"
   opacity="1"
   stroke="none"
   vectornator:layerName="path"
   id="path118" />
<path
   d="m 985.57,1040.32 c -17.769,-8.35 -39.482,-9.12 -58.434,-4.24 -10.152,2.37 -20.966,5.43 -29.825,11.14 -8.214,4.79 -14.886,10.56 -21.123,17.69 5.667,-7.18 11.71,-13.16 19.522,-18.03 9.611,-5.98 20.139,-9.68 31.097,-12.31 19.369,-4.76 41.057,-3.68 58.763,5.75 z"
   fill="#000000"
   fill-rule="nonzero"
   opacity="1"
   stroke="none"
   vectornator:layerName="path"
   id="path120" />
<path
   d="m 1006.82,1046.89 c 0,0 -9.835,3.72 -15.186,2.62 1.647,-1.94 4.629,-6.77 4.629,-6.77 0,0 -7.825,2.32 -13.306,0.13 -3.716,-1.49 -17.166,-4.22 -23.04,-4.5 -7.124,-0.35 -21.422,0.53 -28.44,1.79 -14.248,2.57 -37.941,11.11 -49.313,30.34 -1.077,2.41 -5.942,3.89 -5.942,3.89 0,0 4.307,-0.91 4.852,0.17 1.191,2.37 -5.481,8.52 -6.317,9.28 0.68,-0.61 5.443,-4.79 7.271,-4.08 0.258,0.09 0.579,1.63 0.655,2.03 -1.267,-10.24 20.43,-28.48 50.893,-32.11 31.755,-3.77 55.812,3.14 53.675,12.49 -5.16,22.59 -28.909,29.62 -44.381,31.27 -10.667,1.15 -35.04,-2.43 -49.301,-6.49 l -4.269,-1.34 c 8.441,4.26 31.772,9.27 41.244,10.15 3.141,0.3 9.459,0.44 12.609,0.36 25.121,-0.67 42.903,-13.42 49.529,-30.66 0.527,-1.38 2.086,-2.61 3.538,-2.94 6.77,-1.52 21.52,-7.64 21.52,-7.64 -9.8,1.52 -14.71,2.84 -22.402,0.25 7.512,-2.82 11.482,-8.24 11.482,-8.24 z"
   fill="#000000"
   fill-rule="nonzero"
   opacity="1"
   stroke="none"
   vectornator:layerName="path"
   id="path122" />
</g>
</g>
<g
   opacity="1"
   vectornator:layerName="svga-group-facehighlight-single"
   id="g132">
<path
   d="m 996.351,1182.17 c 0.148,94.06 -75.988,170.45 -170.063,170.58 -94.058,0.15 -170.435,-75.98 -170.582,-170.06 -0.144,-94.06 75.988,-170.43 170.063,-170.58 94.062,-0.15 170.443,75.99 170.582,170.06 z"
   fill="#000000"
   fill-rule="nonzero"
   opacity="1"
   stroke="none"
   vectornator:layerName="path"
   id="path128" />
<path
   d="m 974.376,941.436 c 0,81.624 -66.175,147.794 -147.797,147.794 -81.621,0 -147.796,-66.17 -147.796,-147.794 0,-81.622 66.175,-147.797 147.796,-147.797 81.622,0 147.797,66.175 147.797,147.797 z"
   fill="#000000"
   fill-rule="nonzero"
   opacity="1"
   stroke="none"
   vectornator:layerName="path"
   id="path130" />
</g>
<path
   d="m 720.162,996.623 c -18.686,-2.006 -89.742,15.687 -89.742,15.687 0,0 70.896,-28.465 100.32,-23.934 21.907,3.37 60.795,21.434 53.654,30.994 -5.747,7.69 -23.656,-18.39 -64.232,-22.747 z"
   fill="#000000"
   fill-rule="nonzero"
   opacity="1"
   stroke="none"
   vectornator:layerName="path"
   id="path134" />
<path
   d="m 867.671,1018.24 c -7.233,-9.68 32.059,-26.646 57.202,-28.732 30.053,-2.492 96.757,17.252 96.757,17.252 0,0 -67.139,-11.1 -86.044,-8.896 -41.451,4.836 -62.092,28.166 -67.915,20.376 z"
   fill="#000000"
   fill-rule="nonzero"
   opacity="1"
   stroke="none"
   vectornator:layerName="path"
   id="path136" />
<g
   opacity="1"
   vectornator:layerName="svga-group-nose-single"
   id="g144">
<path
   d="m 793.984,1195.8 c -3.146,8.71 21.232,18.11 30.48,18.69 10.025,0.62 38.106,-12.24 33.343,-21.08 -5.004,-9.28 -23.774,-1.21 -31.869,-1.21 -8.057,0 -27.752,-8.04 -31.954,3.6 z"
   fill="#000000"
   fill-rule="nonzero"
   opacity="1"
   stroke="none"
   vectornator:layerName="path"
   id="path138" />
<path
   d="m 835.899,1199.96 c -1.026,-2.2 5.042,-5.63 7.381,-6.3 3.282,-0.96 10.578,1 10.296,3.51 -0.254,2.2 -6.77,-0.72 -8.889,-0.1 -2.2,0.64 -7.825,4.96 -8.788,2.89 z m -29.53,-2.02 c 2.982,0 7.403,1.93 8.214,0.24 0.967,-2.02 -6.588,-4.5 -8.809,-4.22 -1.833,0.22 -8.408,4.04 -7.504,5.65 0.845,1.49 4.172,-1.67 8.099,-1.67 z"
   fill="#000000"
   fill-rule="nonzero"
   opacity="1"
   stroke="none"
   vectornator:layerName="path"
   id="path140" />
<path
   d="m 825.976,1184.16 c 2.825,0 7.63,-2.69 8.352,-8.02 3.184,-23.55 -2.2,-85.5 -8.352,-85.5 -5.764,0 -10.591,63.45 -9.1,85.5 0.367,5.41 5.899,8.02 9.1,8.02"
   fill="#000000"
   fill-rule="nonzero"
   opacity="0.2"
   stroke="none"
   vectornator:layerName="path"
   id="path142" />
</g>
<g
   opacity="1"
   vectornator:layerName="svga-group-hair-front"
   id="g158">
<path
   d="M 1024.75,852.336 H 620.467 l 8.644,268.844 c 1.744,-4.23 26.041,-47.92 29.065,-41.74 114.086,-56.31 151.132,-127.544 173.817,-184.797 -33.807,142.107 -115.345,162.127 -115.345,162.127 17.863,-1.98 69.135,-7.28 102.977,-42.43 4.429,-4.68 41.877,-32.961 74.485,-121.132 6.748,72.542 38.435,151.412 91.963,185.032 -17.921,-35.32 -41.434,-126.344 -45.749,-190.505 29.732,145.135 59.806,221.415 86.976,272.815 9.23,17.46 27.44,48.33 25.29,47.9 6.51,33.19 -27.84,-356.114 -27.84,-356.114 z"
   fill="#000000"
   fill-rule="nonzero"
   opacity="0.1"
   stroke="none"
   vectornator:layerName="path"
   id="path146" />
<path
   d="m 927.829,716.654 c -13.019,-4.949 -22.322,-8.517 -33.821,-11.596 -0.194,-4.222 -221.893,-67.353 -334.488,195.176 -28.534,82.703 -43.659,210.176 -17.369,293.816 6.077,18.52 22.964,44.82 39.019,132.98 7.727,42.43 13.829,75.94 59.878,122.48 12.09,12.23 43.064,36.52 48.63,58.12 17.06,-93.9 -15.367,-120.28 -46.206,-145.47 -21.147,-17.27 -41.746,-21.22 13.023,-8.23 0,0 11.579,-0.73 34.129,-14.98 -35.691,7.52 -61.213,-4.6 -77.678,-33.13 -21.76,-37.71 -21.646,-94.72 0.266,-132.61 22.005,12.42 20.873,72.45 22.013,80.13 9.865,-31.17 -4.51,-122.48 -6.11,-132.16 -0.363,-4.35 5.675,-19.29 5.675,-19.29 1.744,-4.23 20.367,-38.15 23.39,-31.97 114.086,-56.3 151.133,-127.543 173.817,-184.795 -33.807,142.105 -111.219,169.455 -111.219,169.455 17.863,-1.98 65.01,-14.61 98.847,-49.76 4.429,-4.68 44.655,-48.74 77.263,-136.911 6.748,72.543 39.5,154.401 82.15,203.241 -17.921,-35.32 -34.399,-128.773 -38.714,-192.933 29.732,145.133 66.606,214.913 93.766,266.313 9.24,17.46 19.57,46.92 17.43,46.5 6.51,33.17 -7.13,109.76 -71.287,128.02 12.58,2.36 23.327,2.65 32.647,1.39 -69.541,68.66 -30.65,109.04 -17.682,181.64 3.615,-12.87 3.484,-26.06 23.082,-54.51 36.74,-53.4 8.38,-54.42 53.48,-142.44 48.36,-94.43 42.74,-131.29 47.07,-156.36 0.63,-3.37 27.63,-349.675 -191.001,-432.116 z"
   fill="#000000"
   fill-rule="nonzero"
   opacity="1"
   stroke="none"
   vectornator:layerName="path"
   id="path148" />
<path
   d="m 690.455,1503.02 c 1.786,-10.95 2.918,-20.87 3.526,-29.97 -0.541,9.13 -1.694,19.08 -3.526,29.97 z m 26.333,-485.57 c 52.607,-76.331 84.455,-130.906 101.346,-211.138 -40.226,92.52 -111.485,165.49 -172.508,241.958 -0.756,-17.5 1.989,-117.446 80.87,-236.768 -94.548,86.503 -136.087,209.358 -111.054,283.348 -18.5,-39.13 -32.224,-115.802 -19.146,-168.878 -52.937,125.558 20.514,182.268 41.108,261.688 -5.675,-76.78 -13.297,-62.19 -2.614,-88.61 1.491,-3.61 11.841,-23.44 12.419,-18.9 4.848,-7.37 9.573,-13.09 10.967,-10.24 114.086,-56.3 151.132,-127.537 173.817,-184.789 -33.807,142.109 -111.219,169.459 -111.219,169.459 52.497,-5.83 135.331,-96.583 123.883,-228.248 -21.122,76.009 -75.262,142.155 -127.869,191.118 z m 395.432,-17.871 c 2.97,66.771 -4.68,131.001 -15.38,195.231 -8.45,-59.12 -23.85,-128.51 -51.38,-206.768 23.37,108.098 20.5,146.938 21.79,188.748 -55.51,-120.88 -111.243,-225.004 -132.64,-349.761 -4.02,45.745 7.605,114.09 14.429,165.084 -18.449,-41.218 -39.263,-90.485 -46.805,-165.781 0,14.505 -1.684,22.051 -6.579,40.019 7.31,71.846 41.269,156.569 83.379,204.789 -17.922,-35.32 -34.399,-128.767 -38.715,-192.927 29.733,145.127 66.601,214.917 93.771,266.317 7.92,14.98 16.63,38.76 17.6,44.94 0.16,1.02 0.13,1.62 -0.18,1.55 0.67,3.41 1.12,7.3 1.32,11.52 7.48,19.4 10.68,31.26 6.23,45.54 -6.44,20.67 -38.21,66.01 -78.831,70.97 36.921,8.71 60.561,-11.78 80.101,-37.28 -29.23,67.34 -89.21,37.15 -65.389,218.11 2.96,-10.42 7.209,-28.9 23.339,-52.31 36.74,-53.4 8.38,-54.42 53.48,-142.45 48.36,-94.42 42.74,-131.28 47.07,-156.36 0.28,-1.46 5.54,-67.86 -6.61,-149.181 z M 592.145,1311.21 c 12.622,8.06 27.608,44.83 69.823,41.55 -84.088,-21.68 -80.308,-140.3 -80.308,-212.85 -6.212,20.7 -11.339,42.44 -14.518,64.67 -47.717,-129.91 -20.983,-270.72 41.514,-391.516 -17.749,24.074 -34.39,52.784 -49.141,87.17 -70.486,204.336 -2.107,331.146 4.189,351.996 28.365,93.94 11.33,130.58 77.34,197.28 12.09,12.23 43.064,36.52 48.629,58.12 16.005,-105.97 -80.088,-135.05 -97.528,-196.42 z M 1007.95,813.702 c 65.64,59.312 89.5,193.538 90.06,293.238 0.47,20.99 0.57,-207.174 -90.06,-293.238 z m 50.35,240.758 c 14.12,84.62 -10.64,-180.001 -103.775,-246.78 55.775,46.37 92.975,183.555 103.775,246.78 z M 703.613,801.046 c 25.091,-20.882 -11.794,8.445 -24.501,20.303 -44.499,40.239 -63.531,82.069 -72.369,127.485 15.054,-63.434 48.578,-105.62 96.87,-147.788 z m 58.379,7.314 c 11.917,-10.954 -58.873,34.901 -96.751,174.273 28.444,-86.98 65.49,-143.185 96.751,-174.273 z"
   fill="#000000"
   fill-rule="nonzero"
   opacity="1"
   stroke="none"
   vectornator:layerName="path"
   id="path150" />
<path
   d="m 1044.77,1160.61 c 72.59,113.24 14.56,149.3 7.86,173.02 7.5,-26.55 46.83,-66.1 -7.86,-173.02 z m 49.62,84.98 c 0.43,-4.22 13.78,-38.8 0.5,-103.65 -7.2,-35.2 -19.93,-68.89 -28.54,-103.7 16.58,77.94 36.06,128.48 28.04,207.35 z m -517.891,50.16 c 0.106,-6.17 -23.178,-79.07 10.342,-168.99 -47.422,98.81 -10.13,156.95 -10.342,168.99 z m 26.502,-134.1 c -0.844,-3.51 -3.471,-7.27 -4.957,-10.55 -56.543,-124.14 -17.867,-219.812 30.336,-340.54 -64.448,138.388 -95.071,220.17 -25.379,351.09 z M 728.219,796.937 c 0.152,-0.16 16.329,-16.735 16.54,-16.68 -0.401,-0.105 -3.213,3.007 -3.53,3.298 C 650.795,866.06 594.569,953.64 611.172,1073.99 600.155,962.79 652.23,877.655 728.219,796.937 Z m 98.352,-16.916 C 812.902,814.521 713.004,963.605 647.632,1041.99 757.466,919.891 824.949,791.899 826.571,780.021 Z m -72.813,264.649 c -0.988,0.58 -9.273,6.6 -9.717,6.35 0.19,0.11 6.554,-3.97 7.057,-4.24 C 864.31,987.189 877.637,913.688 905.71,793.487 874.466,905.986 853.005,985.665 753.758,1044.67 Z M 1060.5,1153.21 C 1043.02,1114.1 936.489,881.903 933.922,813.503 c 2.436,113.52 124.688,335.477 126.578,339.707 z m -28.45,-134.49 c 1.52,6.7 3.58,13.44 4.73,20.21 -14.44,-84.944 -22.62,-146.525 -75.879,-213.823 35.552,45.83 48.209,92.884 71.149,193.613 z M 980.478,795.109 c 0,0.287 -0.334,1.047 -0.76,0.722 67.762,51.86 103.142,248.729 104.632,252.949 -5.02,-14.25 1.26,-120.971 -81.5,-227.845 -6.672,-8.614 -14.015,-18.973 -23.09,-25.235 0.258,0.072 0.79,-0.266 0.604,-0.574 0.279,0.447 0.604,0.848 0.933,1.266 0.389,0.224 -0.819,-0.51 -0.819,-1.283 z"
   fill="#000000"
   fill-rule="nonzero"
   opacity="1"
   stroke="none"
   vectornator:layerName="path"
   id="path152" />
<path
   d="m 1049.59,1340.32 c -23.92,69.12 -27.44,73.86 -27.44,73.86 -1.83,4.22 13.25,-43.95 27.44,-73.86 z m -30.41,87.77 c -0.35,1.21 -2.59,9.3 -2.28,8.3 8.13,-23.1 16.1,-28.12 24.3,-63.29 -9.26,28.72 -10.13,20.59 -22.02,54.99 z m 1.94,1.47 c -13.39,19.89 -16.86,32.43 -16.32,31.12 0.39,-1.18 3.3,-7.04 6.39,-12.01 6.97,-11.27 15.39,-19.85 21.58,-41.79 -1.7,4.51 -4.19,12.14 -11.65,22.68 z M 616.426,1406.1 c 16.194,19.91 -2.682,1.98 -29.23,-62.42 10.257,34.62 18.301,48.01 29.23,62.42 z m 22.038,21.59 c -4.231,-3.14 -30.311,-28.77 -40.378,-48.12 14.573,34.38 44.609,51.36 40.378,48.12 z m -12.242,-3.47 c 44.778,42.15 -11.777,-10.72 -16.692,-20.65 0,0 0.072,4.55 16.692,20.65 z"
   fill="#000000"
   fill-rule="nonzero"
   opacity="1"
   stroke="none"
   vectornator:layerName="path"
   id="path154" />
<path
   d="M 1113.22,964.564 C 1062.11,720.501 893.421,703.982 905.085,708.943 753.551,655.238 571.094,753.451 534.572,969.88 c -10.249,60.8 -14.598,172.8 0.641,215.62 8.543,24 13.826,36.69 24.4,64.52 33.431,92.76 -3.142,140.82 102.693,222.24 13.137,10.15 21.815,23.55 27.743,39.19 0.047,-0.09 0.87,-5.01 0.887,-5.11 12.812,-72.71 8.243,-113.42 -61.466,-158.78 19.348,11.24 45.542,8.07 62.104,-9.84 -76.728,21.77 -113.829,-81.34 -76.158,-159.24 13.978,32.7 19.488,63.5 18.644,81.33 15.485,-47.42 5.755,-66.64 -1.098,-152.99 5.836,-13.49 13.023,-24.42 22.085,-35.97 79.434,-39.72 139.169,-76.575 179.818,-193.647 -9.793,32.769 -16.824,64.841 -44.69,107.795 -36.531,56.412 -53.11,58.342 -75.841,70.522 18.804,0 44.344,-5.58 79.751,-26.9 -5.806,4.94 -10.983,9.71 -22.49,17.78 57.822,-37.25 101.224,-90.468 124.06,-180.053 -15.13,71.229 -22.883,135.483 -96.697,175.193 73.861,-37.42 87.754,-91.106 98.082,-173.428 7.428,129.203 68.168,195.068 89.033,210.128 -26.515,-43.52 -38.009,-146.213 -47.396,-212.299 10.189,63.278 6.186,43.626 22.14,105.375 29.141,111.294 65.783,174.034 86.923,218.414 8.71,60.98 -17.45,117.38 -73.41,128.53 13.238,5.27 26.29,5.95 36.86,3.38 -78.155,78.15 -30.404,101.53 -16.047,184.23 5.457,-33.87 24.547,-50.08 39.057,-76.97 14.6,-27.17 9.32,-56.36 25.38,-89.95 53.83,-111.57 97.84,-161.91 53.64,-374.386 z M 981.635,1318.76 c 43.005,-8.29 78.705,-66.69 72.605,-114.77 13.2,30.86 15.98,53.09 -1.75,79.89 -15.16,25.98 -41.06,41.89 -70.855,34.88 z m 78.695,-36.99 v 0 c -0.03,-0.03 -0.03,-0.04 -0.11,-0.04 -0.05,0 0.05,-0.02 0.11,0.04 z m 56.39,-133.27 c -8.81,123.86 -64.83,162.76 -74.45,228.03 -10.77,75.11 -35.45,61.49 -47.376,120.01 -13.056,-72.99 -49.74,-107.68 21.076,-176.21 32.08,-9.92 63.87,-48.83 53.28,-97.72 -16.63,-76.87 -83.169,-119.82 -129.847,-359.777 0.004,0.089 0.017,0.173 0.021,0.262 -0.794,-3.767 -1.79,-8.314 -2.424,-11.49 -0.173,-0.165 -5.878,-35.142 0.119,4.835 1.891,67.188 19.078,169.12 38.794,207.94 -60.474,-76.929 -75.76,-161.126 -78.792,-196.923 0.557,-4.451 1.106,-8.965 1.651,-13.584 v 0.004 c 2.508,-20.202 7.411,-53.072 -2.179,5.743 -30.733,87.428 -69.017,133.709 -78.505,143.75 -32.731,33.98 -82.72,49.54 -96.659,50.8 80.561,-35.71 108.174,-131.783 121.826,-215.867 -0.49,2.374 -5.793,27.744 -5.321,25.379 -24.563,65.271 -56.589,143.098 -180.696,204.338 89.308,-110.061 136.573,-196.564 157.847,-254.631 -43.194,102.993 -167.069,253.311 -181.41,288.121 -4.438,-143.057 45.42,-244.094 94.801,-288.459 -51.454,40.188 -114.098,157.133 -101.472,308.299 4.615,27.98 14.775,100.26 8.584,128.21 1.128,-16.99 -2.419,-40.96 -5.671,-52.41 v -0.04 c -12.782,-46.24 -44.149,-80.73 -50.039,-132.93 -5.321,-47.09 -3.336,-95.605 17.566,-138.846 -15.497,29.137 -23.094,60.707 -24.323,93.616 -3.568,95.43 24.978,105.05 38.279,153.2 -39.981,69.06 -6.448,190.48 75.398,168.07 -49.225,40.1 -91.499,-31.93 -98.961,-45.68 -11.519,-28.32 -13.799,-60.82 -15.218,-90.97 -0.507,215.86 143.523,115.53 116.957,300.21 -3.395,-16.41 -42.84,-51.52 -47.028,-55.75 -63.625,-64.32 -50.188,-103.21 -71.787,-177.27 -8.834,-41.29 -19.695,-56.24 -26.616,-77.34 -26.98,-85.87 -9.358,-215.001 17.368,-292.489 51.235,-119.398 132.501,-197.912 261.811,-202.143 30.505,-1.01 94.332,10.51 57.429,5.32 18.331,3.788 28.973,7.956 46.324,14.527 214.373,80.836 191.193,421.575 189.683,429.745 0,0 -0.04,0.04 -0.04,0.12 z"
   fill="#000000"
   fill-rule="nonzero"
   opacity="1"
   stroke="none"
   vectornator:layerName="path"
   id="path156" />
</g>
<g
   opacity="1"
   vectornator:layerName="svga-group-glasses-single"
   id="g168">
<path
   d="m 1032.4,1059.59 c -0.3,21.83 -9.97,44.85 -22.38,63.26 -12.081,17.9 -43.541,24.28 -66.808,24.28 -19.002,0 -35.936,-3.88 -46.535,-10.68 -19.973,-12.84 -41.425,-44.81 -46.154,-75.29 42.945,-25.81 131.496,-25.81 181.877,-1.57 z m -411.638,-2.95 c -0.591,22.72 9.417,47 22.381,66.21 12.077,17.9 43.537,24.28 66.804,24.28 19.002,0 35.936,-3.88 46.535,-10.68 19.382,-12.46 40.116,-42.91 45.648,-72.55 -45.648,-26.77 -133.482,-29.69 -181.368,-7.26 z"
   fill="#ffffff"
   fill-rule="nonzero"
   opacity="0"
   stroke="none"
   vectornator:layerName="path"
   id="path160" />
<path
   d="m 1032.4,1059.59 c -50.381,-24.19 -138.932,-24.24 -181.835,1.52 -0.718,-4.64 -1.056,-9.24 -0.971,-13.76 0.929,-34.84 50.757,-47.21 93.154,-47.21 29.897,0 65.202,6.2 76.602,20.01 9.54,11.61 13.26,25.25 13.05,39.44 z m -321.989,-59.45 c -29.897,0 -65.199,6.2 -76.6,20.01 -8.868,10.77 -12.711,23.35 -13.049,36.49 47.929,-22.43 135.72,-19.51 181.325,7.22 1.056,-5.58 1.605,-11.11 1.436,-16.51 -0.929,-34.84 -50.757,-47.21 -93.112,-47.21 z"
   fill="#ffffff"
   fill-rule="nonzero"
   opacity="0"
   stroke="none"
   vectornator:layerName="path"
   id="path162" />
<path
   d="m 1056.64,1012.64 c -2.54,-10.18 -118.284,-30.746 -178.374,-10.1 -14.526,4.99 -24.576,9.42 -30.573,15.71 v -0.08 c -2.111,3.71 -7.39,4.98 -11.148,3.59 -6.756,-2.58 -13.597,-2.45 -19.931,0 -3.716,1.43 -9.037,0.12 -11.148,-3.59 v 0.08 c -5.997,-6.29 -16.005,-10.68 -30.573,-15.71 -60.09,-20.646 -175.836,-0.04 -178.369,10.1 -0.972,4.01 -2.281,25.59 -2.196,33.31 0.084,7.73 4.898,7.14 12.119,10.52 2.787,1.31 8.615,11.27 9.164,15.37 2.66,19.17 10.303,36.95 22.211,54.6 20.354,30.15 91.676,34.92 122.08,15.37 21.029,-13.51 42.819,-45.31 48.604,-76.94 1.14,-6.29 2.196,-11.19 2.998,-15.41 l 0.042,0.21 c 1.521,-5.19 8.319,-7.73 15.076,-7.86 6.756,0.13 13.555,2.67 15.075,7.86 l 0.042,-0.21 c 0.76,4.22 1.858,9.12 2.998,15.41 5.786,31.63 27.575,63.43 48.604,76.94 30.404,19.55 101.726,14.78 122.079,-15.37 11.91,-17.65 19.55,-35.43 22.21,-54.6 0.55,-4.14 6.38,-14.11 9.17,-15.37 7.22,-3.38 12.07,-2.75 12.12,-10.52 0,-7.72 -1.31,-29.34 -2.28,-33.31 z m -301.341,121.99 c -26.941,17.31 -92.985,12.84 -110.425,-12.96 -19.847,-29.48 -33.022,-71.54 -9.459,-100.17 22.719,-27.571 164.434,-30.907 165.997,25.89 0.929,33.36 -23.563,72.76 -46.113,87.24 z m 252.981,-12.96 c -17.435,25.84 -83.479,30.27 -110.42,12.96 -22.55,-14.48 -47.042,-53.88 -46.113,-87.24 1.563,-56.797 143.278,-53.461 165.993,-25.89 23.57,28.59 10.39,70.69 -9.46,100.17 z"
   fill="#ffffff"
   fill-rule="nonzero"
   opacity="1"
   stroke="none"
   vectornator:layerName="path"
   id="path164" />
<path
   d="m 595.89,1017.2 c 0.211,-2.12 0.423,-3.76 0.634,-4.61 2.533,-10.17 118.279,-30.738 178.369,-10.09 14.526,4.98 24.576,9.42 30.573,15.71 v -0.08 c 0,-0.05 -92.901,-49.073 -209.576,-0.93 z m 458.38,36.14 c 2.83,-1.26 4.52,-2.95 4.56,-7.47 0.09,-7.69 -1.22,-29.31 -2.19,-33.32 -2.54,-10.18 -118.284,-30.74 -178.374,-10.09 -13.851,4.77 -23.605,9.04 -29.686,14.86 31.755,-25.123 161.18,-30.148 195.89,4.31 7.18,7.18 9.46,20.78 9.8,31.71 z"
   fill="#ffffff"
   fill-rule="nonzero"
   opacity="1"
   stroke="none"
   vectornator:layerName="path"
   id="path166" />
</g>
</g>
</g><path
     d="m 1119.83,1412.25 h 889 v 0 66.67 0 h -889 v 0 z"
     fill="#ecf0f1"
     fill-rule="nonzero"
     opacity="0"
     stroke="none"
     vectornator:layerName="rect"
     id="path174" /><g
     opacity="0"
     vectornator:layerName="tspan"
     id="g208">
<path
   d="m 1382.97,1430.41 c -0.07,0.6 -0.29,1.06 -0.67,1.39 -0.37,0.33 -0.87,0.49 -1.49,0.49 -0.67,0 -1.21,-0.24 -1.61,-0.72 -0.41,-0.48 -0.61,-1.13 -0.61,-1.94 v -0.54 c 0,-0.53 0.09,-1 0.28,-1.4 0.19,-0.4 0.46,-0.71 0.81,-0.92 0.34,-0.22 0.74,-0.32 1.2,-0.32 0.6,0 1.09,0.17 1.45,0.5 0.37,0.34 0.58,0.81 0.64,1.4 h -0.76 c -0.06,-0.45 -0.2,-0.78 -0.42,-0.98 -0.22,-0.2 -0.52,-0.31 -0.91,-0.31 -0.48,0 -0.86,0.18 -1.13,0.54 -0.27,0.35 -0.41,0.85 -0.41,1.51 v 0.55 c 0,0.62 0.13,1.11 0.39,1.47 0.26,0.37 0.62,0.55 1.08,0.55 0.42,0 0.74,-0.1 0.96,-0.29 0.22,-0.18 0.37,-0.51 0.44,-0.98 z"
   fill="#333333"
   fill-rule="nonzero"
   opacity="1"
   stroke="none"
   vectornator:layerName="path"
   id="path176" />
<path
   d="m 1385.92,1428.63 c -0.11,-0.01 -0.23,-0.02 -0.35,-0.02 -0.48,0 -0.8,0.2 -0.97,0.6 v 3 h -0.72 v -4.22 h 0.7 l 0.01,0.48 c 0.24,-0.37 0.58,-0.56 1.01,-0.56 0.14,0 0.25,0.02 0.32,0.05 z"
   fill="#333333"
   fill-rule="nonzero"
   opacity="1"
   stroke="none"
   vectornator:layerName="path"
   id="path178" />
<path
   d="m 1388.34,1432.29 c -0.57,0 -1.04,-0.19 -1.4,-0.56 -0.36,-0.38 -0.54,-0.88 -0.54,-1.51 v -0.14 c 0,-0.42 0.08,-0.79 0.24,-1.12 0.16,-0.33 0.39,-0.59 0.67,-0.77 0.29,-0.19 0.6,-0.28 0.94,-0.28 0.55,0 0.98,0.18 1.28,0.54 0.31,0.36 0.46,0.88 0.46,1.56 v 0.3 h -2.87 c 0.02,0.41 0.14,0.75 0.37,1.01 0.23,0.25 0.53,0.38 0.89,0.38 0.25,0 0.47,-0.05 0.65,-0.15 0.17,-0.11 0.33,-0.25 0.46,-0.42 l 0.44,0.34 c -0.35,0.55 -0.88,0.82 -1.59,0.82 z m -0.09,-3.79 c -0.29,0 -0.54,0.11 -0.73,0.32 -0.2,0.21 -0.33,0.51 -0.37,0.89 h 2.12 v -0.05 c -0.03,-0.37 -0.12,-0.65 -0.3,-0.86 -0.18,-0.2 -0.42,-0.3 -0.72,-0.3 z"
   fill="#333333"
   fill-rule="nonzero"
   opacity="1"
   stroke="none"
   vectornator:layerName="path"
   id="path180" />
<path
   d="m 1393.43,1432.21 c -0.04,-0.08 -0.07,-0.23 -0.1,-0.44 -0.33,0.35 -0.74,0.52 -1.2,0.52 -0.42,0 -0.76,-0.12 -1.03,-0.35 -0.26,-0.24 -0.4,-0.54 -0.4,-0.9 0,-0.44 0.17,-0.78 0.5,-1.02 0.34,-0.25 0.81,-0.37 1.42,-0.37 h 0.7 v -0.33 c 0,-0.25 -0.08,-0.46 -0.23,-0.6 -0.15,-0.15 -0.37,-0.23 -0.66,-0.23 -0.26,0 -0.48,0.07 -0.65,0.2 -0.18,0.13 -0.26,0.28 -0.26,0.47 h -0.73 c 0,-0.21 0.07,-0.42 0.22,-0.61 0.15,-0.2 0.36,-0.36 0.61,-0.47 0.26,-0.11 0.54,-0.17 0.85,-0.17 0.49,0 0.87,0.12 1.14,0.36 0.28,0.25 0.42,0.58 0.43,1.01 v 1.94 c 0,0.39 0.05,0.7 0.15,0.93 v 0.06 z m -1.2,-0.55 c 0.23,0 0.45,-0.06 0.65,-0.17 0.2,-0.12 0.35,-0.27 0.44,-0.46 v -0.87 h -0.57 c -0.88,0 -1.32,0.26 -1.32,0.78 0,0.23 0.07,0.4 0.22,0.53 0.15,0.13 0.35,0.19 0.58,0.19 z"
   fill="#333333"
   fill-rule="nonzero"
   opacity="1"
   stroke="none"
   vectornator:layerName="path"
   id="path182" />
<path
   d="m 1396.16,1426.96 v 1.03 h 0.78 v 0.56 h -0.78 v 2.62 c 0,0.17 0.03,0.29 0.1,0.38 0.07,0.08 0.19,0.12 0.36,0.12 0.08,0 0.2,-0.01 0.34,-0.04 v 0.58 c -0.19,0.06 -0.37,0.08 -0.55,0.08 -0.32,0 -0.57,-0.1 -0.73,-0.29 -0.16,-0.2 -0.25,-0.47 -0.25,-0.83 v -2.62 h -0.77 v -0.56 h 0.77 v -1.03 z"
   fill="#333333"
   fill-rule="nonzero"
   opacity="1"
   stroke="none"
   vectornator:layerName="path"
   id="path184" />
<path
   d="m 1399.54,1432.29 c -0.57,0 -1.04,-0.19 -1.4,-0.56 -0.36,-0.38 -0.53,-0.88 -0.53,-1.51 v -0.14 c 0,-0.42 0.08,-0.79 0.24,-1.12 0.16,-0.33 0.38,-0.59 0.67,-0.77 0.28,-0.19 0.6,-0.28 0.93,-0.28 0.55,0 0.98,0.18 1.28,0.54 0.31,0.36 0.46,0.88 0.46,1.56 v 0.3 h -2.86 c 0.01,0.41 0.13,0.75 0.36,1.01 0.24,0.25 0.53,0.38 0.89,0.38 0.26,0 0.47,-0.05 0.65,-0.15 0.18,-0.11 0.33,-0.25 0.46,-0.42 l 0.45,0.34 c -0.36,0.55 -0.89,0.82 -1.6,0.82 z m -0.09,-3.79 c -0.29,0 -0.53,0.11 -0.73,0.32 -0.2,0.21 -0.32,0.51 -0.37,0.89 h 2.12 v -0.05 c -0.02,-0.37 -0.12,-0.65 -0.3,-0.86 -0.18,-0.2 -0.42,-0.3 -0.72,-0.3 z"
   fill="#333333"
   fill-rule="nonzero"
   opacity="1"
   stroke="none"
   vectornator:layerName="path"
   id="path186" />
<path
   d="m 1401.85,1430.06 c 0,-0.64 0.15,-1.17 0.46,-1.56 0.31,-0.39 0.71,-0.59 1.21,-0.59 0.49,0 0.89,0.17 1.17,0.51 v -2.21 h 0.73 v 6 h -0.67 l -0.03,-0.45 c -0.29,0.35 -0.69,0.53 -1.21,0.53 -0.49,0 -0.89,-0.2 -1.2,-0.6 -0.3,-0.4 -0.46,-0.92 -0.46,-1.57 z m 0.72,0.09 c 0,0.48 0.1,0.85 0.3,1.12 0.2,0.27 0.47,0.41 0.82,0.41 0.46,0 0.79,-0.21 1,-0.62 v -1.94 c -0.21,-0.4 -0.54,-0.6 -0.99,-0.6 -0.36,0 -0.63,0.14 -0.83,0.41 -0.2,0.28 -0.3,0.68 -0.3,1.22 z"
   fill="#333333"
   fill-rule="nonzero"
   opacity="1"
   stroke="none"
   vectornator:layerName="path"
   id="path188" />
<path
   d="m 1408.33,1430.06 c 0,-0.41 0.08,-0.79 0.24,-1.12 0.16,-0.33 0.39,-0.58 0.68,-0.76 0.29,-0.18 0.62,-0.27 1,-0.27 0.57,0 1.04,0.2 1.39,0.6 0.36,0.39 0.54,0.92 0.54,1.59 v 0.05 c 0,0.41 -0.08,0.78 -0.24,1.1 -0.16,0.33 -0.38,0.59 -0.68,0.77 -0.29,0.18 -0.63,0.27 -1.01,0.27 -0.57,0 -1.03,-0.2 -1.39,-0.6 -0.35,-0.39 -0.53,-0.92 -0.53,-1.58 z m 0.72,0.09 c 0,0.47 0.11,0.84 0.33,1.13 0.22,0.28 0.51,0.42 0.87,0.42 0.37,0 0.66,-0.14 0.88,-0.43 0.21,-0.29 0.32,-0.69 0.32,-1.21 0,-0.46 -0.11,-0.84 -0.33,-1.13 -0.22,-0.28 -0.51,-0.43 -0.87,-0.43 -0.36,0 -0.65,0.14 -0.87,0.43 -0.22,0.28 -0.33,0.69 -0.33,1.22 z"
   fill="#333333"
   fill-rule="nonzero"
   opacity="1"
   stroke="none"
   vectornator:layerName="path"
   id="path190" />
<path
   d="m 1413.77,1427.99 0.02,0.53 c 0.32,-0.41 0.74,-0.61 1.26,-0.61 0.9,0 1.35,0.5 1.36,1.51 v 2.79 h -0.73 v -2.79 c 0,-0.31 -0.07,-0.53 -0.21,-0.68 -0.13,-0.15 -0.35,-0.22 -0.63,-0.22 -0.24,0 -0.44,0.06 -0.62,0.19 -0.18,0.12 -0.32,0.29 -0.42,0.49 v 3.01 h -0.72 v -4.22 z"
   fill="#333333"
   fill-rule="nonzero"
   opacity="1"
   stroke="none"
   vectornator:layerName="path"
   id="path192" />
<path
   d="m 1419.83,1432.21 v -3.66 h -0.67 v -0.56 h 0.67 v -0.44 c 0,-0.45 0.12,-0.8 0.36,-1.05 0.25,-0.25 0.59,-0.37 1.03,-0.37 0.17,0 0.33,0.02 0.5,0.07 l -0.04,0.58 c -0.12,-0.02 -0.25,-0.03 -0.39,-0.03 -0.24,0 -0.42,0.07 -0.54,0.2 -0.13,0.14 -0.2,0.34 -0.2,0.59 v 0.45 h 0.91 v 0.56 h -0.91 v 3.66 z"
   fill="#333333"
   fill-rule="nonzero"
   opacity="1"
   stroke="none"
   vectornator:layerName="path"
   id="path194" />
<path
   d="m 1424.86,1432.21 c -0.04,-0.08 -0.07,-0.23 -0.1,-0.44 -0.33,0.35 -0.74,0.52 -1.2,0.52 -0.42,0 -0.76,-0.12 -1.03,-0.35 -0.26,-0.24 -0.4,-0.54 -0.4,-0.9 0,-0.44 0.17,-0.78 0.5,-1.02 0.34,-0.25 0.81,-0.37 1.42,-0.37 h 0.7 v -0.33 c 0,-0.25 -0.08,-0.46 -0.23,-0.6 -0.15,-0.15 -0.37,-0.23 -0.66,-0.23 -0.26,0 -0.48,0.07 -0.65,0.2 -0.18,0.13 -0.27,0.28 -0.27,0.47 h -0.72 c 0,-0.21 0.07,-0.42 0.22,-0.61 0.15,-0.2 0.36,-0.36 0.61,-0.47 0.26,-0.11 0.54,-0.17 0.85,-0.17 0.49,0 0.87,0.12 1.14,0.36 0.28,0.25 0.42,0.58 0.43,1.01 v 1.94 c 0,0.39 0.05,0.7 0.15,0.93 v 0.06 z m -1.2,-0.55 c 0.23,0 0.45,-0.06 0.65,-0.17 0.2,-0.12 0.35,-0.27 0.44,-0.46 v -0.87 h -0.57 c -0.88,0 -1.32,0.26 -1.32,0.78 0,0.23 0.07,0.4 0.22,0.53 0.15,0.13 0.35,0.19 0.58,0.19 z"
   fill="#333333"
   fill-rule="nonzero"
   opacity="1"
   stroke="none"
   vectornator:layerName="path"
   id="path196" />
<path
   d="m 1428.3,1431.7 c 0.26,0 0.48,-0.08 0.68,-0.23 0.19,-0.16 0.3,-0.35 0.32,-0.59 h 0.68 c -0.01,0.24 -0.1,0.47 -0.25,0.69 -0.15,0.22 -0.36,0.4 -0.62,0.53 -0.25,0.13 -0.52,0.19 -0.81,0.19 -0.58,0 -1.03,-0.19 -1.37,-0.57 -0.34,-0.39 -0.51,-0.91 -0.51,-1.58 v -0.12 c 0,-0.41 0.07,-0.78 0.22,-1.1 0.16,-0.32 0.37,-0.57 0.65,-0.75 0.29,-0.17 0.62,-0.26 1.01,-0.26 0.47,0 0.86,0.14 1.18,0.42 0.31,0.29 0.48,0.66 0.5,1.11 h -0.68 c -0.02,-0.27 -0.13,-0.5 -0.31,-0.67 -0.19,-0.18 -0.42,-0.27 -0.69,-0.27 -0.37,0 -0.66,0.13 -0.86,0.4 -0.2,0.26 -0.3,0.65 -0.3,1.15 v 0.13 c 0,0.49 0.1,0.86 0.3,1.13 0.2,0.26 0.49,0.39 0.86,0.39 z"
   fill="#333333"
   fill-rule="nonzero"
   opacity="1"
   stroke="none"
   vectornator:layerName="path"
   id="path198" />
<path
   d="m 1432.55,1432.29 c -0.58,0 -1.04,-0.19 -1.4,-0.56 -0.36,-0.38 -0.54,-0.88 -0.54,-1.51 v -0.14 c 0,-0.42 0.08,-0.79 0.24,-1.12 0.16,-0.33 0.38,-0.59 0.67,-0.77 0.29,-0.19 0.6,-0.28 0.94,-0.28 0.55,0 0.97,0.18 1.28,0.54 0.3,0.36 0.45,0.88 0.45,1.56 v 0.3 h -2.86 c 0.01,0.41 0.13,0.75 0.37,1.01 0.23,0.25 0.53,0.38 0.89,0.38 0.25,0 0.47,-0.05 0.64,-0.15 0.18,-0.11 0.34,-0.25 0.47,-0.42 l 0.44,0.34 c -0.35,0.55 -0.89,0.82 -1.59,0.82 z m -0.09,-3.79 c -0.3,0 -0.54,0.11 -0.74,0.32 -0.2,0.21 -0.32,0.51 -0.36,0.89 h 2.11 v -0.05 c -0.02,-0.37 -0.12,-0.65 -0.29,-0.86 -0.18,-0.2 -0.42,-0.3 -0.72,-0.3 z"
   fill="#333333"
   fill-rule="nonzero"
   opacity="1"
   stroke="none"
   vectornator:layerName="path"
   id="path200" />
<path
   d="m 1435.05,1431.83 c 0,-0.12 0.03,-0.23 0.11,-0.31 0.07,-0.08 0.18,-0.12 0.33,-0.12 0.15,0 0.26,0.04 0.34,0.12 0.08,0.08 0.11,0.19 0.11,0.31 0,0.12 -0.03,0.22 -0.11,0.3 -0.08,0.09 -0.19,0.13 -0.34,0.13 -0.15,0 -0.26,-0.04 -0.33,-0.13 -0.08,-0.08 -0.11,-0.18 -0.11,-0.3 z"
   fill="#333333"
   fill-rule="nonzero"
   opacity="1"
   stroke="none"
   vectornator:layerName="path"
   id="path202" />
<path
   d="m 1438.83,1431.7 c 0.26,0 0.48,-0.08 0.68,-0.23 0.19,-0.16 0.3,-0.35 0.32,-0.59 h 0.68 c -0.01,0.24 -0.1,0.47 -0.25,0.69 -0.15,0.22 -0.36,0.4 -0.61,0.53 -0.26,0.13 -0.53,0.19 -0.82,0.19 -0.57,0 -1.03,-0.19 -1.37,-0.57 -0.34,-0.39 -0.51,-0.91 -0.51,-1.58 v -0.12 c 0,-0.41 0.07,-0.78 0.23,-1.1 0.15,-0.32 0.36,-0.57 0.65,-0.75 0.28,-0.17 0.61,-0.26 1,-0.26 0.47,0 0.87,0.14 1.18,0.42 0.31,0.29 0.48,0.66 0.5,1.11 h -0.68 c -0.02,-0.27 -0.13,-0.5 -0.31,-0.67 -0.19,-0.18 -0.42,-0.27 -0.69,-0.27 -0.37,0 -0.65,0.13 -0.86,0.4 -0.2,0.26 -0.3,0.65 -0.3,1.15 v 0.13 c 0,0.49 0.1,0.86 0.3,1.13 0.2,0.26 0.49,0.39 0.86,0.39 z"
   fill="#333333"
   fill-rule="nonzero"
   opacity="1"
   stroke="none"
   vectornator:layerName="path"
   id="path204" />
<path
   d="m 1441.13,1430.06 c 0,-0.41 0.08,-0.79 0.25,-1.12 0.16,-0.33 0.39,-0.58 0.68,-0.76 0.29,-0.18 0.62,-0.27 0.99,-0.27 0.58,0 1.04,0.2 1.4,0.6 0.35,0.39 0.53,0.92 0.53,1.59 v 0.05 c 0,0.41 -0.08,0.78 -0.24,1.1 -0.15,0.33 -0.38,0.59 -0.67,0.77 -0.3,0.18 -0.63,0.27 -1.01,0.27 -0.57,0 -1.04,-0.2 -1.39,-0.6 -0.36,-0.39 -0.54,-0.92 -0.54,-1.58 z m 0.73,0.09 c 0,0.47 0.11,0.84 0.33,1.13 0.21,0.28 0.5,0.42 0.87,0.42 0.37,0 0.66,-0.14 0.87,-0.43 0.22,-0.29 0.33,-0.69 0.33,-1.21 0,-0.46 -0.11,-0.84 -0.33,-1.13 -0.22,-0.28 -0.52,-0.43 -0.88,-0.43 -0.36,0 -0.64,0.14 -0.86,0.43 -0.22,0.28 -0.33,0.69 -0.33,1.22 z"
   fill="#333333"
   fill-rule="nonzero"
   opacity="1"
   stroke="none"
   vectornator:layerName="path"
   id="path206" />
</g><g
     opacity="1"
     vectornator:layerName="Grouper 2"
     id="g230">
<g
   opacity="1"
   vectornator:layerName="Grouper 1"
   id="g220">
<path
   d="m 1618.22,1299.72 h 2.8 c 3.27,0 6.18,0.94 8.75,2.8 2.57,1.87 3.85,4.44 3.85,7.7 v 56 c 0,7 -2.8,10.5 -8.4,10.5 h -136.5 c -1.87,-16.33 -3.62,-32.43 -5.25,-48.3 -1.63,-15.86 -3.38,-31.73 -5.25,-47.6 l -130.9,-8.4 c -0.93,4.67 -1.63,9.22 -2.1,13.65 -0.47,4.44 -0.93,8.99 -1.4,13.65 h 6.8 c 5.6,0 8.4,3.5 8.4,10.5 l 0.7,56 c 0,3.27 -1.28,5.84 -3.85,7.7 -2.57,1.87 -9.48,2.8 -12.75,2.8 h -184.1 c 27.53,-84 57.51,-163.71 72.21,-238.84 14.7,-75.14 16.46,-144.758 22.99,-209.158 h -9.2 c -5.13,0 -7.7,-3.5 -7.7,-10.5 v -56 c 0,-3.266 1.28,-5.833 3.85,-7.7 2.57,-1.866 10.48,-2.8 13.75,-2.8 h 269.5 c 5.6,47.134 11.78,91.234 18.55,132.3 6.77,41.068 14.12,79.918 22.05,116.548 7.93,36.64 16.33,71.29 25.2,103.95 8.87,32.67 18.2,64.4 28,95.2 z m -151.9,-109.2 c -6.53,-45.26 -14.23,-88.78 -23.1,-130.55 -8.87,-41.76 -19.13,-81.548 -30.8,-119.348 -13.53,49.467 -24.62,95.198 -33.25,137.198 -8.63,42 -15.98,81.9 -22.05,119.7 z"
   fill="#000000"
   fill-rule="nonzero"
   opacity="1"
   stroke="none"
   vectornator:layerName="path"
   id="path210" />
<path
   d="m 1882.82,1414.52 c 2.8,-24.26 4.9,-48.53 6.3,-72.8 -22.87,26.6 -51.8,40.6 -86.8,42 -23.33,0.94 -44.1,-2.68 -62.3,-10.85 -18.2,-8.16 -33.6,-19.95 -46.2,-35.35 -12.6,-15.4 -22.28,-34.3 -29.05,-56.7 -6.77,-22.4 -10.15,-47.6 -10.15,-75.6 0,-34.06 4.32,-63.58 12.95,-88.55 8.63,-24.96 21,-45.73 37.1,-62.3 16.1,-16.56 35.47,-28.81 58.1,-36.75 22.63,-7.93 47.72,-11.9 75.25,-11.9 l 218.75,-7.191 c -7,75.131 -22.87,149.991 -24.5,210.191 -1.63,60.2 -1.52,116.2 0.35,168 1.87,40.6 -9.57,74.32 -34.3,101.15 -24.73,26.84 -61.13,43.99 -109.2,51.45 -7,0.94 -14,1.64 -21,2.1 -7,0.47 -14,0.7 -21,0.7 -30.8,0 -60.55,-4.55 -89.25,-13.65 -28.7,-9.1 -51.68,-21.13 -68.95,-38.39 -7,-7 -2.8,-22.4 -2.8,-22.4 l 35,-53.66 c 13.53,19.14 29.4,33.14 47.6,42 18.2,8.87 35.7,13.3 52.5,13.3 16.33,0 30.22,-3.85 41.65,-11.55 11.43,-7.7 18.08,-18.78 19.95,-33.25 z m -0.7,-338.8 c -25.67,0.94 -45.5,12.6 -59.5,35 -14,22.4 -21.23,53.9 -21.7,94.5 -0.47,34.54 2.92,60.79 10.15,78.75 7.23,17.97 17.62,26.95 31.15,26.95 14,0 25.78,-5.71 35.35,-17.15 9.57,-11.43 14.35,-28.58 14.35,-51.45 0,-29.86 -0.93,-58.8 -2.8,-86.8 -1.87,-28 -4.2,-54.6 -7,-79.8 z"
   fill="#000000"
   fill-rule="nonzero"
   opacity="1"
   stroke="none"
   vectornator:layerName="path"
   id="path212" />
<path
   d="m 2132.02,921.022 c 0,-19.6 6.65,-36.05 19.95,-49.35 13.3,-13.3 29.75,-19.95 49.35,-19.95 19.6,0 36.05,6.65 49.35,19.95 13.3,13.3 19.95,29.75 19.95,49.35 0,19.6 -6.65,36.05 -19.95,49.35 -13.3,13.3 -29.75,19.95 -49.35,19.95 -19.6,0 -36.05,-6.65 -49.35,-19.95 -13.3,-13.3 -19.95,-29.75 -19.95,-49.35 z m 151.2,391.298 c 7,0 7.56,11.73 7.56,11.73 l 2.94,44.97 c 0,5.14 -3.5,7.7 -10.5,7.7 h -168 c 19.13,-118.53 21.7,-218.86 7.7,-301 h -4.2 c -7,0 -10.5,-2.56 -10.5,-7.7 v -54.6 c 0,-5.13 3.5,-7.7 10.5,-7.7 h 168 c -4.2,28 -7.58,56.12 -10.15,84.35 -2.57,28.24 -14.09,67.02 -14.55,93.15 -0.47,26.14 1.17,58.07 2.57,82.11 1.4,24.03 7.42,32.81 7.42,32.81 z"
   fill="#000000"
   fill-rule="nonzero"
   opacity="1"
   stroke="none"
   vectornator:layerName="path"
   id="path214" />
<path
   d="m 2518.42,1306.72 h 2.8 c 7,0 10.5,3.5 10.5,10.5 v 49 c 0,7 -3.5,10.5 -10.5,10.5 h -168 c 9.33,-84 18.42,-164.85 19.82,-242.32 1.4,-77.47 -8.98,-128.91 -10.56,-198.298 l -5.76,-14.38 c -7,0 -10.5,-3.5 -10.5,-10.5 v -49 c 0,-7 3.5,-10.5 10.5,-10.5 h 168 c -8.87,94.267 -18.77,180.418 -19.71,254.388 -0.93,73.97 6.88,139.48 13.41,200.61 z"
   fill="#000000"
   fill-rule="nonzero"
   opacity="1"
   stroke="none"
   vectornator:layerName="path"
   id="path216" />
<path
   d="m 2957.32,1127.52 c -1.87,19.6 -8.98,37.92 -21.35,54.95 -12.37,17.04 -28.58,31.85 -48.65,44.45 -20.07,12.6 -42.93,22.52 -68.6,29.75 -25.67,7.24 -52.5,10.85 -80.5,10.85 7.47,15.87 17.97,27.65 31.5,35.35 13.53,7.7 28.23,11.55 44.1,11.55 17.73,0 35.58,-4.9 53.55,-14.7 17.97,-9.8 38.34,-35.34 50.47,-54.94 l 31.5,46.9 c 5.13,7.93 4.2,15.4 -2.8,22.4 -19.6,19.6 -49.54,45.14 -79.17,54.94 -29.63,9.8 -60.08,14.7 -91.35,14.7 -29.87,0 -57.17,-4.08 -81.9,-12.25 -24.73,-8.16 -45.73,-20.3 -63,-36.4 -17.27,-16.1 -30.57,-36.05 -39.9,-59.85 -9.33,-23.8 -13.77,-51.33 -13.3,-82.6 0.93,-64.86 18.43,-112.93 52.5,-144.2 34.07,-31.26 87.73,-47.83 161,-49.698 28,-0.933 52.73,1.518 74.2,7.348 21.47,5.84 39.32,14.47 53.55,25.9 14.23,11.44 24.62,25.2 31.15,41.3 6.53,16.1 8.87,34.19 7,54.25 z m -227.75,81.5 c 27.54,-5.14 45.75,-20.13 61.15,-30.4 15.4,-10.26 26.37,-21.46 32.9,-33.6 5.13,-9.8 7.82,-18.78 8.05,-26.95 0.23,-8.16 -1.17,-15.4 -4.2,-21.7 -3.03,-6.3 -7.35,-11.2 -12.95,-14.7 -5.6,-3.5 -11.9,-5.25 -18.9,-5.25 -9.33,0 -19.25,3.85 -29.75,11.55 -10.5,7.7 -19.72,20.42 -27.65,38.15 -4.2,9.34 -7.35,20.77 -9.45,34.3 -2.1,13.54 0.34,34.6 0.8,48.6 z"
   fill="#000000"
   fill-rule="nonzero"
   opacity="1"
   stroke="none"
   vectornator:layerName="path"
   id="path218" />
</g>
<g
   opacity="1"
   vectornator:layerName="Text 3"
   id="g228">
<path
   d="m 1739.77,839.013 c 0,4 -0.42,6 -1.25,6 -0.5,0 -1.92,-1.584 -4.25,-4.75 -4.17,-5.834 -9.58,-10.209 -16.25,-13.125 -6.67,-2.917 -14.17,-4.375 -22.5,-4.375 h -5 c -2,26.666 -3,50.583 -3,71.75 0,21.166 1,41.166 3,60 h 1 c 2.5,0 3.75,1.25 3.75,3.75 v 20 c 0,2.5 -1.25,3.75 -3.75,3.75 h -61.25 c 3.33,-30 5.25,-58.334 5.75,-85 0.5,-26.667 -0.5,-51.417 -3,-74.25 h -5.5 c -8.33,0 -15.83,1.458 -22.5,4.375 -6.67,2.916 -12.08,7.291 -16.25,13.125 -2.33,3.166 -3.75,4.75 -4.25,4.75 -0.83,0 -1.25,-2 -1.25,-6 v -40.25 c 0,-2.834 1.75,-4.25 5.25,-4.25 h 146 c 3.5,0 5.25,1.416 5.25,4.25 z"
   fill="#000000"
   fill-rule="nonzero"
   opacity="1"
   stroke="none"
   vectornator:layerName="path"
   id="path222" />
<path
   d="m 1895.52,910.763 c -0.67,8.666 -0.83,17.083 -0.5,25.25 0.33,8.166 1.08,15.833 2.25,23 h 1 c 2.5,0 3.75,0.916 3.75,2.75 v 17.5 c 0,1.833 -1.25,2.75 -3.75,2.75 h -60 c 2.17,-13.167 3.92,-25.667 5.25,-37.5 1.33,-11.834 2.08,-23.084 2.25,-33.75 0.17,-7.167 -0.04,-13.167 -0.62,-18 -0.59,-4.834 -1.46,-8.709 -2.63,-11.625 -1.17,-2.917 -2.62,-5 -4.37,-6.25 -1.75,-1.25 -3.8,-1.875 -6.13,-1.875 -4.83,0 -8.87,1.916 -12.12,5.75 -3.25,3.833 -5.05,9.666 -5.38,17.5 -0.33,11 -0.17,21.5 0.5,31.5 0.67,10 1.5,19.75 2.5,29.25 h 1 c 2.5,0 3.75,1.25 3.75,3.75 v 17.5 c 0,2.5 -1.25,3.75 -3.75,3.75 h -60 c 3.33,-30 5.25,-58.834 5.75,-86.5 0.5,-27.667 -0.5,-53 -3,-76 h -1.5 c -2.5,0 -3.75,-1.25 -3.75,-3.75 v -17.5 c 0,-2.5 1.25,-3.75 3.75,-3.75 h 60 c -1.17,12.333 -2.17,24.083 -3,35.25 -0.83,11.166 -1.42,22 -1.75,32.5 8.33,-9.667 18.75,-14.75 31.25,-15.25 8.5,-0.334 15.96,0.958 22.38,3.875 6.41,2.916 11.75,7.166 16,12.75 4.25,5.583 7.29,12.375 9.12,20.375 1.83,8 2.42,16.916 1.75,26.75 z"
   fill="#000000"
   fill-rule="nonzero"
   opacity="1"
   stroke="none"
   vectornator:layerName="path"
   id="path224" />
<path
   d="m 2052.77,893.013 c -0.67,7 -3.21,13.541 -7.62,19.625 -4.42,6.083 -10.21,11.375 -17.38,15.875 -7.17,4.5 -15.33,8.041 -24.5,10.625 -9.17,2.583 -18.75,3.875 -28.75,3.875 2.67,5.666 6.42,9.875 11.25,12.625 4.83,2.75 10.08,4.125 15.75,4.125 6.33,0 12.71,-1.75 19.13,-5.25 6.41,-3.5 11.79,-8.75 16.12,-15.75 l 11.25,16.75 c 1.83,2.833 1.5,5.5 -1,8 -7,7 -15.79,12.25 -26.37,15.75 -10.59,3.5 -21.46,5.25 -32.63,5.25 -10.67,0 -20.42,-1.459 -29.25,-4.375 -8.83,-2.917 -16.33,-7.25 -22.5,-13 -6.17,-5.75 -10.92,-12.875 -14.25,-21.375 -3.33,-8.5 -4.92,-18.334 -4.75,-29.5 0.33,-23.167 6.58,-40.334 18.75,-51.5 12.17,-11.167 31.33,-17.084 57.5,-17.75 10,-0.334 18.83,0.541 26.5,2.625 7.67,2.083 14.04,5.166 19.13,9.25 5.08,4.083 8.79,9 11.12,14.75 2.33,5.75 3.17,12.208 2.5,19.375 z m -82.5,26.5 c 9.83,-1.834 17.5,-4.584 23,-8.25 5.5,-3.667 9.42,-7.667 11.75,-12 1.83,-3.5 2.79,-6.709 2.88,-9.625 0.08,-2.917 -0.42,-5.5 -1.5,-7.75 -1.09,-2.25 -2.63,-4 -4.63,-5.25 -2,-1.25 -4.25,-1.875 -6.75,-1.875 -3.33,0 -6.87,1.375 -10.62,4.125 -3.75,2.75 -7.05,7.291 -9.88,13.625 -1.5,3.333 -2.62,7.416 -3.37,12.25 -0.75,4.833 -1.05,9.75 -0.88,14.75 z"
   fill="#000000"
   fill-rule="nonzero"
   opacity="1"
   stroke="none"
   vectornator:layerName="path"
   id="path226" />
</g>
</g><g
     fill="#000000"
     opacity="1"
     stroke="none"
     vectornator:layerName="Text 1"
     id="g246">
<path
   d="m 2119.69,1559.42 h 29.75 c 2.5,0 3.75,1.25 3.75,3.75 v 17.5 c 0,2.5 -1.25,3.75 -3.75,3.75 h -88.75 c 2,-17.83 3.5,-35.33 4.5,-52.5 1,-17.17 1.5,-33.75 1.5,-49.75 l -12.25,1 c -2.5,0.33 -3.75,-0.83 -3.75,-3.5 v -22.5 c 0,-2.67 1.25,-3.83 3.75,-3.5 l 11.5,0.75 c -0.33,-5.67 -0.66,-11.21 -1,-16.62 -0.33,-5.42 -0.83,-10.71 -1.5,-15.88 h -1.5 c -2.5,0 -3.75,-1.25 -3.75,-3.75 v -17.5 c 0,-2.5 1.25,-3.75 3.75,-3.75 h 60 c -1,10.5 -1.83,20.62 -2.5,30.38 -0.66,9.75 -1.25,19.2 -1.75,28.37 l 30.5,-2 c 2.5,-0.33 3.75,0.83 3.75,3.5 v 22.5 c 0,2.67 -1.25,3.83 -3.75,3.5 l -31.5,-2 c -0.33,14.67 -0.25,28.42 0.25,41.25 0.5,12.83 1.42,25.17 2.75,37 z"
   id="path232" />
<path
   d="m 2297.94,1518.67 c 0.34,21.67 -5.96,38.62 -18.87,50.88 -12.92,12.25 -32.04,18.37 -57.38,18.37 -25.16,0 -44.21,-6.12 -57.12,-18.37 -12.92,-12.26 -19.29,-29.21 -19.13,-50.88 0.34,-23.17 6.54,-40.5 18.63,-52 12.08,-11.5 31.29,-17.25 57.62,-17.25 26.34,0 45.54,5.75 57.63,17.25 12.08,11.5 18.29,28.83 18.62,52 z m -76.25,44.25 c 4.67,0 8.5,-1.08 11.5,-3.25 3,-2.17 5.34,-5.17 7,-9 1.67,-3.83 2.84,-8.5 3.5,-14 0.67,-5.5 1,-11.5 1,-18 0,-6.5 -0.33,-12.5 -1,-18 -0.66,-5.5 -1.83,-10.17 -3.5,-14 -1.66,-3.83 -4,-6.83 -7,-9 -3,-2.17 -6.83,-3.25 -11.5,-3.25 -4.66,0 -8.5,1.08 -11.5,3.25 -3,2.17 -5.33,5.17 -7,9 -1.66,3.83 -2.83,8.5 -3.5,14 -0.66,5.5 -1,11.5 -1,18 0,6.5 0.34,12.5 1,18 0.67,5.5 1.84,10.17 3.5,14 1.67,3.83 4,6.83 7,9 3,2.17 6.84,3.25 11.5,3.25 z"
   id="path234" />
<path
   d="m 2452.94,1518.67 c 0.34,21.67 -5.96,38.62 -18.87,50.88 -12.92,12.25 -32.04,18.37 -57.38,18.37 -25.16,0 -44.21,-6.12 -57.12,-18.37 -12.92,-12.26 -19.29,-29.21 -19.13,-50.88 0.34,-23.17 6.54,-40.5 18.63,-52 12.08,-11.5 31.29,-17.25 57.62,-17.25 26.34,0 45.54,5.75 57.63,17.25 12.08,11.5 18.29,28.83 18.62,52 z m -76.25,44.25 c 4.67,0 8.5,-1.08 11.5,-3.25 3,-2.17 5.34,-5.17 7,-9 1.67,-3.83 2.84,-8.5 3.5,-14 0.67,-5.5 1,-11.5 1,-18 0,-6.5 -0.33,-12.5 -1,-18 -0.66,-5.5 -1.83,-10.17 -3.5,-14 -1.66,-3.83 -4,-6.83 -7,-9 -3,-2.17 -6.83,-3.25 -11.5,-3.25 -4.66,0 -8.5,1.08 -11.5,3.25 -3,2.17 -5.33,5.17 -7,9 -1.66,3.83 -2.83,8.5 -3.5,14 -0.66,5.5 -1,11.5 -1,18 0,6.5 0.34,12.5 1,18 0.67,5.5 1.84,10.17 3.5,14 1.67,3.83 4,6.83 7,9 3,2.17 6.84,3.25 11.5,3.25 z"
   id="path236" />
<path
   d="m 2517.94,1559.42 h 1 c 2.5,0 3.75,1.25 3.75,3.75 v 17.5 c 0,2.5 -1.25,3.75 -3.75,3.75 h -60 c 3.34,-30 5.25,-58.83 5.75,-86.5 0.5,-27.67 -0.5,-53 -3,-76 h -1.5 c -2.5,0 -3.75,-1.25 -3.75,-3.75 v -17.5 c 0,-2.5 1.25,-3.75 3.75,-3.75 h 60 c -3.16,33.67 -4.91,63.71 -5.25,90.13 -0.33,26.41 0.67,50.54 3,72.37 z"
   id="path238" />
<path
   d="m 2529.69,1584.42 c 3.34,-30 5.25,-58.83 5.75,-86.5 0.5,-27.67 -0.5,-53 -3,-76 h -1.5 c -2.5,0 -3.75,-1.25 -3.75,-3.75 v -17.5 c 0,-2.5 1.25,-3.75 3.75,-3.75 h 60 c -1.16,12.33 -2.16,24.08 -3,35.25 -0.83,11.17 -1.41,22 -1.75,32.5 8.34,-9.67 18.75,-14.75 31.25,-15.25 8.34,-0.33 15.75,0.96 22.25,3.88 6.5,2.91 12,7.12 16.5,12.62 4.5,5.5 7.96,12.25 10.38,20.25 2.41,8 3.62,17 3.62,27 0,12.17 -1.54,22.71 -4.62,31.63 -3.09,8.91 -7.5,16.29 -13.25,22.12 -5.75,5.83 -12.67,10.21 -20.75,13.13 -8.09,2.91 -17.04,4.37 -26.88,4.37 z m 59,-25 c 9.17,-0.33 16.29,-4.5 21.38,-12.5 5.08,-8 7.71,-19.25 7.87,-33.75 0.17,-12.33 -1.04,-21.71 -3.62,-28.12 -2.59,-6.42 -6.29,-9.63 -11.13,-9.63 -4.83,0 -8.87,1.92 -12.12,5.75 -3.25,3.83 -5.04,9.67 -5.38,17.5 -0.33,11 -0.16,21.5 0.5,31.5 0.67,10 1.5,19.75 2.5,29.25 z"
   id="path240" />
<path
   d="m 2824.94,1518.67 c 0.34,21.67 -5.96,38.62 -18.87,50.88 -12.92,12.25 -32.04,18.37 -57.38,18.37 -25.16,0 -44.21,-6.12 -57.12,-18.37 -12.92,-12.26 -19.29,-29.21 -19.13,-50.88 0.34,-23.17 6.54,-40.5 18.63,-52 12.08,-11.5 31.29,-17.25 57.62,-17.25 26.34,0 45.54,5.75 57.63,17.25 12.08,11.5 18.29,28.83 18.62,52 z m -76.25,44.25 c 4.67,0 8.5,-1.08 11.5,-3.25 3,-2.17 5.34,-5.17 7,-9 1.67,-3.83 2.84,-8.5 3.5,-14 0.67,-5.5 1,-11.5 1,-18 0,-6.5 -0.33,-12.5 -1,-18 -0.66,-5.5 -1.83,-10.17 -3.5,-14 -1.66,-3.83 -4,-6.83 -7,-9 -3,-2.17 -6.83,-3.25 -11.5,-3.25 -4.66,0 -8.5,1.08 -11.5,3.25 -3,2.17 -5.33,5.17 -7,9 -1.66,3.83 -2.83,8.5 -3.5,14 -0.66,5.5 -1,11.5 -1,18 0,6.5 0.34,12.5 1,18 0.67,5.5 1.84,10.17 3.5,14 1.67,3.83 4,6.83 7,9 3,2.17 6.84,3.25 11.5,3.25 z"
   id="path242" />
<path
   d="m 2874.94,1561.42 c 2.5,0 3.25,0.92 2.25,2.75 l -8.5,17.5 c -1,1.83 -2.75,2.75 -5.25,2.75 h -46.25 c 14.5,-21.83 26.5,-41.83 36,-60 -2.66,-3.5 -5.16,-6.96 -7.5,-10.37 -2.33,-3.42 -4.54,-6.92 -6.62,-10.5 -2.09,-3.59 -4.21,-7.34 -6.38,-11.25 -2.16,-3.92 -4.41,-8.21 -6.75,-12.88 h -2.5 c -2.5,0 -3.75,-1.25 -3.75,-3.75 v -18.75 c 0,-3.33 1.17,-5 3.5,-5 h 51 c 2,17 8,32.33 18,46 3.67,-8 6.67,-15.67 9,-23 h -1 c -2.33,0 -3.08,-0.92 -2.25,-2.75 l 8.5,-17.5 c 1,-1.83 2.75,-2.75 5.25,-2.75 h 46.25 c -14.5,21.67 -26.5,41.67 -36,60 2.84,3.5 5.38,6.96 7.63,10.38 2.25,3.41 4.46,6.91 6.62,10.5 2.17,3.58 4.29,7.33 6.38,11.25 2.08,3.91 4.29,8.2 6.62,12.87 h 2.5 c 2.5,0 3.75,1.25 3.75,3.75 v 18.75 c 0,3.33 -1.16,5 -3.5,5 h -51 c -2,-17 -8,-32.33 -18,-46 -3.66,8 -6.66,15.67 -9,23 z"
   id="path244" />
</g></g>
</g>
</svg>
